<?xml version="1.0" encoding="UTF-8" standalone="no"?>
<!DOCTYPE svg PUBLIC "-//W3C//DTD SVG 1.1//EN"
 "http://www.w3.org/Graphics/SVG/1.1/DTD/svg11.dtd">
<!-- Generated by graphviz version 14.1.3 (0)
 -->
<!-- Pages: 1 -->
<svg width="1594pt" height="771pt"
 viewBox="0.00 0.00 1594.00 771.00" xmlns="http://www.w3.org/2000/svg" xmlns:xlink="http://www.w3.org/1999/xlink">
<g id="graph0" class="graph" transform="scale(1 1) rotate(0) translate(4 767.09)">
<polygon fill="white" stroke="none" points="-4,4 -4,-767.09 1589.57,-767.09 1589.57,4 -4,4"/>
<g id="clust1" class="cluster">
<title>cluster17</title>
<path fill="none" stroke="black" d="M32,-243.82C32,-243.82 132,-243.82 132,-243.82 138,-243.82 144,-249.82 144,-255.82 144,-255.82 144,-353.63 144,-353.63 144,-359.63 138,-365.63 132,-365.63 132,-365.63 32,-365.63 32,-365.63 26,-365.63 20,-359.63 20,-353.63 20,-353.63 20,-255.82 20,-255.82 20,-249.82 26,-243.82 32,-243.82"/>
<text xml:space="preserve" text-anchor="middle" x="129.25" y="-251.02" font-family="Times New Roman,serif" font-size="14.00">17</text>
</g>
<g id="clust2" class="cluster">
<title>cluster17 x 1</title>
<path fill="none" stroke="black" d="M54,-373.63C54,-373.63 132,-373.63 132,-373.63 138,-373.63 144,-379.63 144,-385.63 144,-385.63 144,-483.45 144,-483.45 144,-489.45 138,-495.45 132,-495.45 132,-495.45 54,-495.45 54,-495.45 48,-495.45 42,-489.45 42,-483.45 42,-483.45 42,-385.63 42,-385.63 42,-379.63 48,-373.63 54,-373.63"/>
<text xml:space="preserve" text-anchor="middle" x="118.75" y="-380.83" font-family="Times New Roman,serif" font-size="14.00">17 x 1</text>
</g>
<g id="clust3" class="cluster">
<title>cluster17 x 4</title>
<path fill="none" stroke="black" d="M164,-373.63C164,-373.63 246,-373.63 246,-373.63 252,-373.63 258,-379.63 258,-385.63 258,-385.63 258,-483.45 258,-483.45 258,-489.45 252,-495.45 246,-495.45 246,-495.45 164,-495.45 164,-495.45 158,-495.45 152,-489.45 152,-483.45 152,-483.45 152,-385.63 152,-385.63 152,-379.63 158,-373.63 164,-373.63"/>
<text xml:space="preserve" text-anchor="middle" x="232.75" y="-380.83" font-family="Times New Roman,serif" font-size="14.00">17 x 4</text>
</g>
<g id="clust4" class="cluster">
<title>cluster17 x 5</title>
<path fill="none" stroke="black" d="M164,-255.73C164,-255.73 246,-255.73 246,-255.73 252,-255.73 258,-261.73 258,-267.73 258,-267.73 258,-341.73 258,-341.73 258,-347.73 252,-353.73 246,-353.73 246,-353.73 164,-353.73 164,-353.73 158,-353.73 152,-347.73 152,-341.73 152,-341.73 152,-267.73 152,-267.73 152,-261.73 158,-255.73 164,-255.73"/>
<text xml:space="preserve" text-anchor="middle" x="232.75" y="-262.93" font-family="Times New Roman,serif" font-size="14.00">17 x 5</text>
</g>
<g id="clust5" class="cluster">
<title>cluster4 x 18</title>
<path fill="none" stroke="black" d="M20,-503.45C20,-503.45 78,-503.45 78,-503.45 84,-503.45 90,-509.45 90,-515.45 90,-515.45 90,-613.27 90,-613.27 90,-619.27 84,-625.27 78,-625.27 78,-625.27 20,-625.27 20,-625.27 14,-625.27 8,-619.27 8,-613.27 8,-613.27 8,-515.45 8,-515.45 8,-509.45 14,-503.45 20,-503.45"/>
<text xml:space="preserve" text-anchor="middle" x="64.75" y="-510.65" font-family="Times New Roman,serif" font-size="14.00">4 x 18</text>
</g>
<g id="clust6" class="cluster">
<title>cluster10</title>
<path fill="none" stroke="black" d="M280,-633.27C280,-633.27 440,-633.27 440,-633.27 446,-633.27 452,-639.27 452,-645.27 452,-645.27 452,-743.09 452,-743.09 452,-749.09 446,-755.09 440,-755.09 440,-755.09 280,-755.09 280,-755.09 274,-755.09 268,-749.09 268,-743.09 268,-743.09 268,-645.27 268,-645.27 268,-639.27 274,-633.27 280,-633.27"/>
<text xml:space="preserve" text-anchor="middle" x="437.25" y="-640.47" font-family="Times New Roman,serif" font-size="14.00">10</text>
</g>
<g id="clust7" class="cluster">
<title>cluster4 x 4</title>
<path fill="none" stroke="black" d="M392,-385.54C392,-385.54 502,-385.54 502,-385.54 508,-385.54 514,-391.54 514,-397.54 514,-397.54 514,-601.36 514,-601.36 514,-607.36 508,-613.36 502,-613.36 502,-613.36 392,-613.36 392,-613.36 386,-613.36 380,-607.36 380,-601.36 380,-601.36 380,-397.54 380,-397.54 380,-391.54 386,-385.54 392,-385.54"/>
<text xml:space="preserve" text-anchor="middle" x="492.12" y="-392.74" font-family="Times New Roman,serif" font-size="14.00">4 x 4</text>
</g>
<g id="clust8" class="cluster">
<title>cluster4</title>
<path fill="none" stroke="black" d="M110,-515.36C110,-515.36 328,-515.36 328,-515.36 334,-515.36 340,-521.36 340,-527.36 340,-527.36 340,-601.36 340,-601.36 340,-607.36 334,-613.36 328,-613.36 328,-613.36 110,-613.36 110,-613.36 104,-613.36 98,-607.36 98,-601.36 98,-601.36 98,-527.36 98,-527.36 98,-521.36 104,-515.36 110,-515.36"/>
<text xml:space="preserve" text-anchor="middle" x="328.62" y="-522.56" font-family="Times New Roman,serif" font-size="14.00">4</text>
</g>
<g id="clust9" class="cluster">
<title>cluster18 x 4</title>
<path fill="none" stroke="black" d="M278,-385.54C278,-385.54 360,-385.54 360,-385.54 366,-385.54 372,-391.54 372,-397.54 372,-397.54 372,-471.54 372,-471.54 372,-477.54 366,-483.54 360,-483.54 360,-483.54 278,-483.54 278,-483.54 272,-483.54 266,-477.54 266,-471.54 266,-471.54 266,-397.54 266,-397.54 266,-391.54 272,-385.54 278,-385.54"/>
<text xml:space="preserve" text-anchor="middle" x="346.75" y="-392.74" font-family="Times New Roman,serif" font-size="14.00">18 x 4</text>
</g>
<g id="clust10" class="cluster">
<title>cluster11</title>
<path fill="none" stroke="black" d="M534,-385.54C534,-385.54 666,-385.54 666,-385.54 672,-385.54 678,-391.54 678,-397.54 678,-397.54 678,-613.27 678,-613.27 678,-619.27 672,-625.27 666,-625.27 666,-625.27 534,-625.27 534,-625.27 528,-625.27 522,-619.27 522,-613.27 522,-613.27 522,-397.54 522,-397.54 522,-391.54 528,-385.54 534,-385.54"/>
<text xml:space="preserve" text-anchor="middle" x="663.25" y="-392.74" font-family="Times New Roman,serif" font-size="14.00">11</text>
</g>
<g id="clust11" class="cluster">
<title>cluster11 x 18</title>
<path fill="none" stroke="black" d="M698,-373.63C698,-373.63 804,-373.63 804,-373.63 810,-373.63 816,-379.63 816,-385.63 816,-385.63 816,-483.45 816,-483.45 816,-489.45 810,-495.45 804,-495.45 804,-495.45 698,-495.45 698,-495.45 692,-495.45 686,-489.45 686,-483.45 686,-483.45 686,-385.63 686,-385.63 686,-379.63 692,-373.63 698,-373.63"/>
<text xml:space="preserve" text-anchor="middle" x="787.38" y="-380.83" font-family="Times New Roman,serif" font-size="14.00">11 x 18</text>
</g>
<g id="clust12" class="cluster">
<title>cluster2 x 18</title>
<path fill="none" stroke="black" d="M836,-373.63C836,-373.63 1170,-373.63 1170,-373.63 1176,-373.63 1182,-379.63 1182,-385.63 1182,-385.63 1182,-483.45 1182,-483.45 1182,-489.45 1176,-495.45 1170,-495.45 1170,-495.45 836,-495.45 836,-495.45 830,-495.45 824,-489.45 824,-483.45 824,-483.45 824,-385.63 824,-385.63 824,-379.63 830,-373.63 836,-373.63"/>
<text xml:space="preserve" text-anchor="middle" x="1156.75" y="-380.83" font-family="Times New Roman,serif" font-size="14.00">2 x 18</text>
</g>
<g id="clust13" class="cluster">
<title>cluster18 x 11</title>
<path fill="none" stroke="black" d="M902,-255.73C902,-255.73 984,-255.73 984,-255.73 990,-255.73 996,-261.73 996,-267.73 996,-267.73 996,-341.73 996,-341.73 996,-347.73 990,-353.73 984,-353.73 984,-353.73 902,-353.73 902,-353.73 896,-353.73 890,-347.73 890,-341.73 890,-341.73 890,-267.73 890,-267.73 890,-261.73 896,-255.73 902,-255.73"/>
<text xml:space="preserve" text-anchor="middle" x="967.38" y="-262.93" font-family="Times New Roman,serif" font-size="14.00">18 x 11</text>
</g>
<g id="clust14" class="cluster">
<title>cluster4 x 1</title>
<path fill="none" stroke="black" d="M780,-645.18C780,-645.18 862,-645.18 862,-645.18 868,-645.18 874,-651.18 874,-657.18 874,-657.18 874,-731.18 874,-731.18 874,-737.18 868,-743.18 862,-743.18 862,-743.18 780,-743.18 780,-743.18 774,-743.18 768,-737.18 768,-731.18 768,-731.18 768,-657.18 768,-657.18 768,-651.18 774,-645.18 780,-645.18"/>
<text xml:space="preserve" text-anchor="middle" x="852.12" y="-652.38" font-family="Times New Roman,serif" font-size="14.00">4 x 1</text>
</g>
<g id="clust15" class="cluster">
<title>cluster7272 x 6</title>
<path fill="none" stroke="black" d="M164,-137.82C164,-137.82 246,-137.82 246,-137.82 252,-137.82 258,-143.82 258,-149.82 258,-149.82 258,-223.82 258,-223.82 258,-229.82 252,-235.82 246,-235.82 246,-235.82 164,-235.82 164,-235.82 158,-235.82 152,-229.82 152,-223.82 152,-223.82 152,-149.82 152,-149.82 152,-143.82 158,-137.82 164,-137.82"/>
<text xml:space="preserve" text-anchor="middle" x="226" y="-145.02" font-family="Times New Roman,serif" font-size="14.00">7272 x 6</text>
</g>
<g id="clust16" class="cluster">
<title>cluster7272</title>
<path fill="none" stroke="black" d="M154,-8C154,-8 256,-8 256,-8 262,-8 268,-14 268,-20 268,-20 268,-117.82 268,-117.82 268,-123.82 262,-129.82 256,-129.82 256,-129.82 154,-129.82 154,-129.82 148,-129.82 142,-123.82 142,-117.82 142,-117.82 142,-20 142,-20 142,-14 148,-8 154,-8"/>
<text xml:space="preserve" text-anchor="middle" x="246.5" y="-15.2" font-family="Times New Roman,serif" font-size="14.00">7272</text>
</g>
<!-- a -->
<g id="node1" class="node">
<title>a</title>
<ellipse fill="none" stroke="black" cx="82" cy="-316.98" rx="54.27" ry="40.66"/>
<text xml:space="preserve" text-anchor="middle" x="82" y="-328.43" font-family="Times New Roman,serif" font-size="14.00">a</text>
<text xml:space="preserve" text-anchor="middle" x="82" y="-311.93" font-family="Times New Roman,serif" font-size="14.00">~</text>
<text xml:space="preserve" text-anchor="middle" x="82" y="-295.43" font-family="Times New Roman,serif" font-size="14.00">Lognormal</text>
</g>
<!-- y_obs_probs -->
<g id="node23" class="node">
<title>y_obs_probs</title>
<polygon fill="none" stroke="black" points="250.12,-227.82 159.88,-227.82 159.88,-170.32 250.12,-170.32 250.12,-227.82"/>
<text xml:space="preserve" text-anchor="middle" x="205" y="-210.52" font-family="Times New Roman,serif" font-size="14.00">y_obs_probs</text>
<text xml:space="preserve" text-anchor="middle" x="205" y="-194.02" font-family="Times New Roman,serif" font-size="14.00">~</text>
<text xml:space="preserve" text-anchor="middle" x="205" y="-177.52" font-family="Times New Roman,serif" font-size="14.00">Deterministic</text>
</g>
<!-- a&#45;&gt;y_obs_probs -->
<g id="edge20" class="edge">
<title>a&#45;&gt;y_obs_probs</title>
<path fill="none" stroke="black" d="M110.74,-282.13C121.91,-269.63 135.11,-255.64 148,-243.82 151.08,-240.99 154.32,-238.16 157.64,-235.37"/>
<polygon fill="black" stroke="black" points="159.83,-238.11 165.36,-229.07 155.4,-232.68 159.83,-238.11"/>
</g>
<!-- first_cut -->
<g id="node2" class="node">
<title>first_cut</title>
<ellipse fill="none" stroke="black" cx="93" cy="-446.79" rx="43.13" ry="40.66"/>
<text xml:space="preserve" text-anchor="middle" x="93" y="-458.24" font-family="Times New Roman,serif" font-size="14.00">first_cut</text>
<text xml:space="preserve" text-anchor="middle" x="93" y="-441.74" font-family="Times New Roman,serif" font-size="14.00">~</text>
<text xml:space="preserve" text-anchor="middle" x="93" y="-425.24" font-family="Times New Roman,serif" font-size="14.00">Normal</text>
</g>
<!-- cutpoints -->
<g id="node4" class="node">
<title>cutpoints</title>
<polygon fill="none" stroke="black" points="250.12,-345.73 159.88,-345.73 159.88,-288.23 250.12,-288.23 250.12,-345.73"/>
<text xml:space="preserve" text-anchor="middle" x="205" y="-328.43" font-family="Times New Roman,serif" font-size="14.00">cutpoints</text>
<text xml:space="preserve" text-anchor="middle" x="205" y="-311.93" font-family="Times New Roman,serif" font-size="14.00">~</text>
<text xml:space="preserve" text-anchor="middle" x="205" y="-295.43" font-family="Times New Roman,serif" font-size="14.00">Deterministic</text>
</g>
<!-- first_cut&#45;&gt;cutpoints -->
<g id="edge2" class="edge">
<title>first_cut&#45;&gt;cutpoints</title>
<path fill="none" stroke="black" d="M116.66,-412.66C126.03,-400.11 137.15,-385.9 148,-373.63 153.8,-367.08 160.21,-360.36 166.59,-353.97"/>
<polygon fill="black" stroke="black" points="168.85,-356.65 173.51,-347.14 163.93,-351.67 168.85,-356.65"/>
</g>
<!-- cut_diffs -->
<g id="node3" class="node">
<title>cut_diffs</title>
<ellipse fill="none" stroke="black" cx="205" cy="-446.79" rx="45.25" ry="40.66"/>
<text xml:space="preserve" text-anchor="middle" x="205" y="-458.24" font-family="Times New Roman,serif" font-size="14.00">cut_diffs</text>
<text xml:space="preserve" text-anchor="middle" x="205" y="-441.74" font-family="Times New Roman,serif" font-size="14.00">~</text>
<text xml:space="preserve" text-anchor="middle" x="205" y="-425.24" font-family="Times New Roman,serif" font-size="14.00">Gamma</text>
</g>
<!-- cut_diffs&#45;&gt;cutpoints -->
<g id="edge1" class="edge">
<title>cut_diffs&#45;&gt;cutpoints</title>
<path fill="none" stroke="black" d="M205,-405.7C205,-390.3 205,-372.74 205,-357.4"/>
<polygon fill="black" stroke="black" points="208.5,-357.69 205,-347.69 201.5,-357.69 208.5,-357.69"/>
</g>
<!-- cutpoints&#45;&gt;y_obs_probs -->
<g id="edge19" class="edge">
<title>cutpoints&#45;&gt;y_obs_probs</title>
<path fill="none" stroke="black" d="M205,-287.92C205,-273.36 205,-255.34 205,-239.41"/>
<polygon fill="black" stroke="black" points="208.5,-239.78 205,-229.78 201.5,-239.78 208.5,-239.78"/>
</g>
<!-- z_sec -->
<g id="node5" class="node">
<title>z_sec</title>
<ellipse fill="none" stroke="black" cx="49" cy="-576.61" rx="32.53" ry="40.66"/>
<text xml:space="preserve" text-anchor="middle" x="49" y="-588.06" font-family="Times New Roman,serif" font-size="14.00">z_sec</text>
<text xml:space="preserve" text-anchor="middle" x="49" y="-571.56" font-family="Times New Roman,serif" font-size="14.00">~</text>
<text xml:space="preserve" text-anchor="middle" x="49" y="-555.06" font-family="Times New Roman,serif" font-size="14.00">T</text>
</g>
<!-- theta_sec -->
<g id="node11" class="node">
<title>theta_sec</title>
<polygon fill="none" stroke="black" points="364.12,-475.54 273.88,-475.54 273.88,-418.04 364.12,-418.04 364.12,-475.54"/>
<text xml:space="preserve" text-anchor="middle" x="319" y="-458.24" font-family="Times New Roman,serif" font-size="14.00">theta_sec</text>
<text xml:space="preserve" text-anchor="middle" x="319" y="-441.74" font-family="Times New Roman,serif" font-size="14.00">~</text>
<text xml:space="preserve" text-anchor="middle" x="319" y="-425.24" font-family="Times New Roman,serif" font-size="14.00">Deterministic</text>
</g>
<!-- z_sec&#45;&gt;theta_sec -->
<g id="edge6" class="edge">
<title>z_sec&#45;&gt;theta_sec</title>
<path fill="none" stroke="black" d="M62.74,-539.61C69.9,-525.88 80.12,-511.59 94,-503.45 126.24,-484.54 227.18,-509.04 262,-495.45 269.68,-492.45 277.08,-487.98 283.86,-482.96"/>
<polygon fill="black" stroke="black" points="285.92,-485.8 291.52,-476.8 281.53,-480.34 285.92,-485.8"/>
</g>
<!-- chol_cov_sec -->
<g id="node6" class="node">
<title>chol_cov_sec</title>
<ellipse fill="none" stroke="black" cx="360" cy="-706.43" rx="84.5" ry="40.66"/>
<text xml:space="preserve" text-anchor="middle" x="360" y="-717.88" font-family="Times New Roman,serif" font-size="14.00">chol_cov_sec</text>
<text xml:space="preserve" text-anchor="middle" x="360" y="-701.38" font-family="Times New Roman,serif" font-size="14.00">~</text>
<text xml:space="preserve" text-anchor="middle" x="360" y="-684.88" font-family="Times New Roman,serif" font-size="14.00">_LKJCholeskyCov</text>
</g>
<!-- chol_cov_sec_corr -->
<g id="node8" class="node">
<title>chol_cov_sec_corr</title>
<polygon fill="none" stroke="black" points="506,-605.36 388,-605.36 388,-547.86 506,-547.86 506,-605.36"/>
<text xml:space="preserve" text-anchor="middle" x="447" y="-588.06" font-family="Times New Roman,serif" font-size="14.00">chol_cov_sec_corr</text>
<text xml:space="preserve" text-anchor="middle" x="447" y="-571.56" font-family="Times New Roman,serif" font-size="14.00">~</text>
<text xml:space="preserve" text-anchor="middle" x="447" y="-555.06" font-family="Times New Roman,serif" font-size="14.00">Deterministic</text>
</g>
<!-- chol_cov_sec&#45;&gt;chol_cov_sec_corr -->
<g id="edge3" class="edge">
<title>chol_cov_sec&#45;&gt;chol_cov_sec_corr</title>
<path fill="none" stroke="black" d="M385.87,-667.42C397.17,-650.82 410.39,-631.4 421.64,-614.87"/>
<polygon fill="black" stroke="black" points="424.42,-617.01 427.15,-606.77 418.63,-613.07 424.42,-617.01"/>
</g>
<!-- chol_cov_sec_stds -->
<g id="node9" class="node">
<title>chol_cov_sec_stds</title>
<polygon fill="none" stroke="black" points="223.62,-605.36 106.38,-605.36 106.38,-547.86 223.62,-547.86 223.62,-605.36"/>
<text xml:space="preserve" text-anchor="middle" x="165" y="-588.06" font-family="Times New Roman,serif" font-size="14.00">chol_cov_sec_stds</text>
<text xml:space="preserve" text-anchor="middle" x="165" y="-571.56" font-family="Times New Roman,serif" font-size="14.00">~</text>
<text xml:space="preserve" text-anchor="middle" x="165" y="-555.06" font-family="Times New Roman,serif" font-size="14.00">Deterministic</text>
</g>
<!-- chol_cov_sec&#45;&gt;chol_cov_sec_stds -->
<g id="edge4" class="edge">
<title>chol_cov_sec&#45;&gt;chol_cov_sec_stds</title>
<path fill="none" stroke="black" d="M308.66,-673.81C285.39,-659.28 257.64,-641.66 233,-625.27 226.71,-621.08 220.15,-616.61 213.68,-612.15"/>
<polygon fill="black" stroke="black" points="215.78,-609.35 205.57,-606.52 211.79,-615.1 215.78,-609.35"/>
</g>
<!-- chol_cov_sec&#45;&gt;theta_sec -->
<g id="edge5" class="edge">
<title>chol_cov_sec&#45;&gt;theta_sec</title>
<path fill="none" stroke="black" d="M360.83,-665.29C360.75,-624.06 358.04,-558.31 344,-503.45 342.56,-497.82 340.59,-492.05 338.38,-486.46"/>
<polygon fill="black" stroke="black" points="341.66,-485.22 334.51,-477.39 335.22,-487.96 341.66,-485.22"/>
</g>
<!-- Omega -->
<g id="node7" class="node">
<title>Omega</title>
<polygon fill="none" stroke="black" points="492.12,-475.54 401.88,-475.54 401.88,-418.04 492.12,-418.04 492.12,-475.54"/>
<text xml:space="preserve" text-anchor="middle" x="447" y="-458.24" font-family="Times New Roman,serif" font-size="14.00">Omega</text>
<text xml:space="preserve" text-anchor="middle" x="447" y="-441.74" font-family="Times New Roman,serif" font-size="14.00">~</text>
<text xml:space="preserve" text-anchor="middle" x="447" y="-425.24" font-family="Times New Roman,serif" font-size="14.00">Deterministic</text>
</g>
<!-- chol_cov_sec_corr&#45;&gt;Omega -->
<g id="edge18" class="edge">
<title>chol_cov_sec_corr&#45;&gt;Omega</title>
<path fill="none" stroke="black" d="M447,-547.56C447,-529.83 447,-506.65 447,-487.1"/>
<polygon fill="black" stroke="black" points="450.5,-487.29 447,-477.29 443.5,-487.29 450.5,-487.29"/>
</g>
<!-- chol_cov_sec_stds&#45;&gt;theta_sec -->
<g id="edge7" class="edge">
<title>chol_cov_sec_stds&#45;&gt;theta_sec</title>
<path fill="none" stroke="black" d="M185.13,-547.7C197.39,-532.58 214.27,-514.73 233,-503.45 244.45,-496.55 250.16,-501.66 262,-495.45 268.68,-491.95 275.28,-487.56 281.49,-482.88"/>
<polygon fill="black" stroke="black" points="283.46,-485.79 289.09,-476.81 279.09,-480.32 283.46,-485.79"/>
</g>
<!-- sigma -->
<g id="node10" class="node">
<title>sigma</title>
<polygon fill="none" stroke="black" points="332.12,-605.36 241.88,-605.36 241.88,-547.86 332.12,-547.86 332.12,-605.36"/>
<text xml:space="preserve" text-anchor="middle" x="287" y="-588.06" font-family="Times New Roman,serif" font-size="14.00">sigma</text>
<text xml:space="preserve" text-anchor="middle" x="287" y="-571.56" font-family="Times New Roman,serif" font-size="14.00">~</text>
<text xml:space="preserve" text-anchor="middle" x="287" y="-555.06" font-family="Times New Roman,serif" font-size="14.00">Deterministic</text>
</g>
<!-- theta_cat -->
<g id="node21" class="node">
<title>theta_cat</title>
<polygon fill="none" stroke="black" points="988.12,-345.73 897.88,-345.73 897.88,-288.23 988.12,-288.23 988.12,-345.73"/>
<text xml:space="preserve" text-anchor="middle" x="943" y="-328.43" font-family="Times New Roman,serif" font-size="14.00">theta_cat</text>
<text xml:space="preserve" text-anchor="middle" x="943" y="-311.93" font-family="Times New Roman,serif" font-size="14.00">~</text>
<text xml:space="preserve" text-anchor="middle" x="943" y="-295.43" font-family="Times New Roman,serif" font-size="14.00">Deterministic</text>
</g>
<!-- theta_sec&#45;&gt;theta_cat -->
<g id="edge10" class="edge">
<title>theta_sec&#45;&gt;theta_cat</title>
<path fill="none" stroke="black" d="M333.6,-417.79C343.37,-402.04 357.79,-383.59 376,-373.63 462.91,-326.15 760.78,-318.9 886.4,-317.99"/>
<polygon fill="black" stroke="black" points="886.16,-321.49 896.14,-317.93 886.12,-314.49 886.16,-321.49"/>
</g>
<!-- sigma_cat -->
<g id="node12" class="node">
<title>sigma_cat</title>
<polygon fill="none" stroke="black" points="657.12,-475.54 566.88,-475.54 566.88,-418.04 657.12,-418.04 657.12,-475.54"/>
<text xml:space="preserve" text-anchor="middle" x="612" y="-458.24" font-family="Times New Roman,serif" font-size="14.00">sigma_cat</text>
<text xml:space="preserve" text-anchor="middle" x="612" y="-441.74" font-family="Times New Roman,serif" font-size="14.00">~</text>
<text xml:space="preserve" text-anchor="middle" x="612" y="-425.24" font-family="Times New Roman,serif" font-size="14.00">Deterministic</text>
</g>
<!-- sigma_cat&#45;&gt;theta_cat -->
<g id="edge12" class="edge">
<title>sigma_cat&#45;&gt;theta_cat</title>
<path fill="none" stroke="black" d="M632.34,-417.83C644.95,-402.49 662.45,-384.45 682,-373.63 746.34,-338.04 831.22,-325.18 886.44,-320.56"/>
<polygon fill="black" stroke="black" points="886.55,-324.06 896.25,-319.81 886.01,-317.08 886.55,-324.06"/>
</g>
<!-- sigma_cat_raw -->
<g id="node13" class="node">
<title>sigma_cat_raw</title>
<ellipse fill="none" stroke="black" cx="600" cy="-576.61" rx="69.65" ry="40.66"/>
<text xml:space="preserve" text-anchor="middle" x="600" y="-588.06" font-family="Times New Roman,serif" font-size="14.00">sigma_cat_raw</text>
<text xml:space="preserve" text-anchor="middle" x="600" y="-571.56" font-family="Times New Roman,serif" font-size="14.00">~</text>
<text xml:space="preserve" text-anchor="middle" x="600" y="-555.06" font-family="Times New Roman,serif" font-size="14.00">Halfnormal</text>
</g>
<!-- sigma_cat_raw&#45;&gt;sigma_cat -->
<g id="edge8" class="edge">
<title>sigma_cat_raw&#45;&gt;sigma_cat</title>
<path fill="none" stroke="black" d="M603.76,-535.52C605.21,-520.12 606.86,-502.56 608.3,-487.22"/>
<polygon fill="black" stroke="black" points="611.76,-487.79 609.21,-477.5 604.79,-487.13 611.76,-487.79"/>
</g>
<!-- z_cat_indep -->
<g id="node14" class="node">
<title>z_cat_indep</title>
<ellipse fill="none" stroke="black" cx="751" cy="-446.79" rx="57.45" ry="40.66"/>
<text xml:space="preserve" text-anchor="middle" x="751" y="-458.24" font-family="Times New Roman,serif" font-size="14.00">z_cat_indep</text>
<text xml:space="preserve" text-anchor="middle" x="751" y="-441.74" font-family="Times New Roman,serif" font-size="14.00">~</text>
<text xml:space="preserve" text-anchor="middle" x="751" y="-425.24" font-family="Times New Roman,serif" font-size="14.00">T</text>
</g>
<!-- z_cat_indep&#45;&gt;theta_cat -->
<g id="edge15" class="edge">
<title>z_cat_indep&#45;&gt;theta_cat</title>
<path fill="none" stroke="black" d="M779.2,-411.07C790.87,-398.18 805.15,-384.16 820,-373.63 840.38,-359.2 865.11,-347.13 887.03,-337.97"/>
<polygon fill="black" stroke="black" points="888.18,-341.28 896.13,-334.28 885.55,-334.79 888.18,-341.28"/>
</g>
<!-- z_block_1 -->
<g id="node15" class="node">
<title>z_block_1</title>
<ellipse fill="none" stroke="black" cx="883" cy="-446.79" rx="51.09" ry="40.66"/>
<text xml:space="preserve" text-anchor="middle" x="883" y="-458.24" font-family="Times New Roman,serif" font-size="14.00">z_block_1</text>
<text xml:space="preserve" text-anchor="middle" x="883" y="-441.74" font-family="Times New Roman,serif" font-size="14.00">~</text>
<text xml:space="preserve" text-anchor="middle" x="883" y="-425.24" font-family="Times New Roman,serif" font-size="14.00">T</text>
</g>
<!-- z_block_1&#45;&gt;theta_cat -->
<g id="edge17" class="edge">
<title>z_block_1&#45;&gt;theta_cat</title>
<path fill="none" stroke="black" d="M900.68,-408.14C908.33,-391.83 917.29,-372.75 924.98,-356.36"/>
<polygon fill="black" stroke="black" points="928.1,-357.95 929.18,-347.41 921.77,-354.97 928.1,-357.95"/>
</g>
<!-- z_block_2 -->
<g id="node16" class="node">
<title>z_block_2</title>
<ellipse fill="none" stroke="black" cx="1003" cy="-446.79" rx="51.09" ry="40.66"/>
<text xml:space="preserve" text-anchor="middle" x="1003" y="-458.24" font-family="Times New Roman,serif" font-size="14.00">z_block_2</text>
<text xml:space="preserve" text-anchor="middle" x="1003" y="-441.74" font-family="Times New Roman,serif" font-size="14.00">~</text>
<text xml:space="preserve" text-anchor="middle" x="1003" y="-425.24" font-family="Times New Roman,serif" font-size="14.00">T</text>
</g>
<!-- z_block_2&#45;&gt;theta_cat -->
<g id="edge11" class="edge">
<title>z_block_2&#45;&gt;theta_cat</title>
<path fill="none" stroke="black" d="M985.32,-408.14C977.67,-391.83 968.71,-372.75 961.02,-356.36"/>
<polygon fill="black" stroke="black" points="964.23,-354.97 956.82,-347.41 957.9,-357.95 964.23,-354.97"/>
</g>
<!-- z_block_0 -->
<g id="node17" class="node">
<title>z_block_0</title>
<ellipse fill="none" stroke="black" cx="1123" cy="-446.79" rx="51.09" ry="40.66"/>
<text xml:space="preserve" text-anchor="middle" x="1123" y="-458.24" font-family="Times New Roman,serif" font-size="14.00">z_block_0</text>
<text xml:space="preserve" text-anchor="middle" x="1123" y="-441.74" font-family="Times New Roman,serif" font-size="14.00">~</text>
<text xml:space="preserve" text-anchor="middle" x="1123" y="-425.24" font-family="Times New Roman,serif" font-size="14.00">T</text>
</g>
<!-- z_block_0&#45;&gt;theta_cat -->
<g id="edge14" class="edge">
<title>z_block_0&#45;&gt;theta_cat</title>
<path fill="none" stroke="black" d="M1098.87,-410.61C1088.85,-397.81 1076.43,-383.97 1063,-373.63 1043.85,-358.9 1020.17,-346.88 998.91,-337.82"/>
<polygon fill="black" stroke="black" points="1000.36,-334.63 989.78,-334.06 997.7,-341.11 1000.36,-334.63"/>
</g>
<!-- rho_block_1 -->
<g id="node18" class="node">
<title>rho_block_1</title>
<ellipse fill="none" stroke="black" cx="1252" cy="-446.79" rx="59.57" ry="40.66"/>
<text xml:space="preserve" text-anchor="middle" x="1252" y="-458.24" font-family="Times New Roman,serif" font-size="14.00">rho_block_1</text>
<text xml:space="preserve" text-anchor="middle" x="1252" y="-441.74" font-family="Times New Roman,serif" font-size="14.00">~</text>
<text xml:space="preserve" text-anchor="middle" x="1252" y="-425.24" font-family="Times New Roman,serif" font-size="14.00">Uniform</text>
</g>
<!-- rho_block_1&#45;&gt;theta_cat -->
<g id="edge9" class="edge">
<title>rho_block_1&#45;&gt;theta_cat</title>
<path fill="none" stroke="black" d="M1226.59,-409.83C1215.54,-396.62 1201.55,-382.69 1186,-373.63 1128.11,-339.91 1051.39,-326.62 999.77,-321.38"/>
<polygon fill="black" stroke="black" points="1000.29,-317.92 990.01,-320.47 999.64,-324.88 1000.29,-317.92"/>
</g>
<!-- rho_block_2 -->
<g id="node19" class="node">
<title>rho_block_2</title>
<ellipse fill="none" stroke="black" cx="1389" cy="-446.79" rx="59.57" ry="40.66"/>
<text xml:space="preserve" text-anchor="middle" x="1389" y="-458.24" font-family="Times New Roman,serif" font-size="14.00">rho_block_2</text>
<text xml:space="preserve" text-anchor="middle" x="1389" y="-441.74" font-family="Times New Roman,serif" font-size="14.00">~</text>
<text xml:space="preserve" text-anchor="middle" x="1389" y="-425.24" font-family="Times New Roman,serif" font-size="14.00">Uniform</text>
</g>
<!-- rho_block_2&#45;&gt;theta_cat -->
<g id="edge16" class="edge">
<title>rho_block_2&#45;&gt;theta_cat</title>
<path fill="none" stroke="black" d="M1363.62,-409.94C1352.16,-396.42 1337.48,-382.23 1321,-373.63 1266.22,-345.07 1091.01,-328.61 999.64,-321.76"/>
<polygon fill="black" stroke="black" points="1000.14,-318.28 989.91,-321.04 999.62,-325.26 1000.14,-318.28"/>
</g>
<!-- rho_block_0 -->
<g id="node20" class="node">
<title>rho_block_0</title>
<ellipse fill="none" stroke="black" cx="1526" cy="-446.79" rx="59.57" ry="40.66"/>
<text xml:space="preserve" text-anchor="middle" x="1526" y="-458.24" font-family="Times New Roman,serif" font-size="14.00">rho_block_0</text>
<text xml:space="preserve" text-anchor="middle" x="1526" y="-441.74" font-family="Times New Roman,serif" font-size="14.00">~</text>
<text xml:space="preserve" text-anchor="middle" x="1526" y="-425.24" font-family="Times New Roman,serif" font-size="14.00">Uniform</text>
</g>
<!-- rho_block_0&#45;&gt;theta_cat -->
<g id="edge13" class="edge">
<title>rho_block_0&#45;&gt;theta_cat</title>
<path fill="none" stroke="black" d="M1500.79,-409.62C1489.35,-396.05 1474.65,-381.91 1458,-373.63 1378.69,-334.2 1116.51,-322.5 999.84,-319.2"/>
<polygon fill="black" stroke="black" points="999.95,-315.7 989.86,-318.93 999.77,-322.7 999.95,-315.7"/>
</g>
<!-- theta_cat&#45;&gt;y_obs_probs -->
<g id="edge21" class="edge">
<title>theta_cat&#45;&gt;y_obs_probs</title>
<path fill="none" stroke="black" d="M897.39,-308.81C768.71,-288.6 402.97,-231.16 261.68,-208.97"/>
<polygon fill="black" stroke="black" points="262.22,-205.51 251.8,-207.42 261.13,-212.43 262.22,-205.51"/>
</g>
<!-- mu -->
<g id="node22" class="node">
<title>mu</title>
<polygon fill="none" stroke="black" points="866.12,-735.18 775.88,-735.18 775.88,-677.68 866.12,-677.68 866.12,-735.18"/>
<text xml:space="preserve" text-anchor="middle" x="821" y="-717.88" font-family="Times New Roman,serif" font-size="14.00">mu</text>
<text xml:space="preserve" text-anchor="middle" x="821" y="-701.38" font-family="Times New Roman,serif" font-size="14.00">~</text>
<text xml:space="preserve" text-anchor="middle" x="821" y="-684.88" font-family="Times New Roman,serif" font-size="14.00">Deterministic</text>
</g>
<!-- y_obs -->
<g id="node24" class="node">
<title>y_obs</title>
<ellipse fill="lightgrey" stroke="black" cx="205" cy="-81.16" rx="55.33" ry="40.66"/>
<text xml:space="preserve" text-anchor="middle" x="205" y="-92.61" font-family="Times New Roman,serif" font-size="14.00">y_obs</text>
<text xml:space="preserve" text-anchor="middle" x="205" y="-76.11" font-family="Times New Roman,serif" font-size="14.00">~</text>
<text xml:space="preserve" text-anchor="middle" x="205" y="-59.61" font-family="Times New Roman,serif" font-size="14.00">Categorical</text>
</g>
<!-- y_obs_probs&#45;&gt;y_obs -->
<g id="edge22" class="edge">
<title>y_obs_probs&#45;&gt;y_obs</title>
<path fill="none" stroke="black" d="M205,-170.01C205,-159.03 205,-146.08 205,-133.55"/>
<polygon fill="black" stroke="black" points="208.5,-133.74 205,-123.74 201.5,-133.74 208.5,-133.74"/>
</g>
</g>
</svg>
