<?xml version="1.0" encoding="UTF-8" standalone="no"?>
<!DOCTYPE svg PUBLIC "-//W3C//DTD SVG 1.1//EN"
 "http://www.w3.org/Graphics/SVG/1.1/DTD/svg11.dtd">
<!-- Generated by graphviz version 14.1.3 (0)
 -->
<!-- Pages: 1 -->
<svg width="3026pt" height="771pt"
 viewBox="0.00 0.00 3026.00 771.00" xmlns="http://www.w3.org/2000/svg" xmlns:xlink="http://www.w3.org/1999/xlink">
<g id="graph0" class="graph" transform="scale(1 1) rotate(0) translate(4 767.09)">
<polygon fill="white" stroke="none" points="-4,4 -4,-767.09 3021.57,-767.09 3021.57,4 -4,4"/>
<g id="clust1" class="cluster">
<title>cluster96</title>
<path fill="none" stroke="black" d="M32,-243.82C32,-243.82 132,-243.82 132,-243.82 138,-243.82 144,-249.82 144,-255.82 144,-255.82 144,-353.63 144,-353.63 144,-359.63 138,-365.63 132,-365.63 132,-365.63 32,-365.63 32,-365.63 26,-365.63 20,-359.63 20,-353.63 20,-353.63 20,-255.82 20,-255.82 20,-249.82 26,-243.82 32,-243.82"/>
<text xml:space="preserve" text-anchor="middle" x="129.25" y="-251.02" font-family="Times New Roman,serif" font-size="14.00">96</text>
</g>
<g id="clust2" class="cluster">
<title>cluster96 x 1</title>
<path fill="none" stroke="black" d="M54,-373.63C54,-373.63 132,-373.63 132,-373.63 138,-373.63 144,-379.63 144,-385.63 144,-385.63 144,-483.45 144,-483.45 144,-489.45 138,-495.45 132,-495.45 132,-495.45 54,-495.45 54,-495.45 48,-495.45 42,-489.45 42,-483.45 42,-483.45 42,-385.63 42,-385.63 42,-379.63 48,-373.63 54,-373.63"/>
<text xml:space="preserve" text-anchor="middle" x="118.75" y="-380.83" font-family="Times New Roman,serif" font-size="14.00">96 x 1</text>
</g>
<g id="clust3" class="cluster">
<title>cluster96 x 4</title>
<path fill="none" stroke="black" d="M164,-373.63C164,-373.63 246,-373.63 246,-373.63 252,-373.63 258,-379.63 258,-385.63 258,-385.63 258,-483.45 258,-483.45 258,-489.45 252,-495.45 246,-495.45 246,-495.45 164,-495.45 164,-495.45 158,-495.45 152,-489.45 152,-483.45 152,-483.45 152,-385.63 152,-385.63 152,-379.63 158,-373.63 164,-373.63"/>
<text xml:space="preserve" text-anchor="middle" x="232.75" y="-380.83" font-family="Times New Roman,serif" font-size="14.00">96 x 4</text>
</g>
<g id="clust4" class="cluster">
<title>cluster96 x 5</title>
<path fill="none" stroke="black" d="M164,-255.73C164,-255.73 246,-255.73 246,-255.73 252,-255.73 258,-261.73 258,-267.73 258,-267.73 258,-341.73 258,-341.73 258,-347.73 252,-353.73 246,-353.73 246,-353.73 164,-353.73 164,-353.73 158,-353.73 152,-347.73 152,-341.73 152,-341.73 152,-267.73 152,-267.73 152,-261.73 158,-255.73 164,-255.73"/>
<text xml:space="preserve" text-anchor="middle" x="232.75" y="-262.93" font-family="Times New Roman,serif" font-size="14.00">96 x 5</text>
</g>
<g id="clust5" class="cluster">
<title>cluster5 x 82</title>
<path fill="none" stroke="black" d="M20,-503.45C20,-503.45 78,-503.45 78,-503.45 84,-503.45 90,-509.45 90,-515.45 90,-515.45 90,-613.27 90,-613.27 90,-619.27 84,-625.27 78,-625.27 78,-625.27 20,-625.27 20,-625.27 14,-625.27 8,-619.27 8,-613.27 8,-613.27 8,-515.45 8,-515.45 8,-509.45 14,-503.45 20,-503.45"/>
<text xml:space="preserve" text-anchor="middle" x="64.75" y="-510.65" font-family="Times New Roman,serif" font-size="14.00">5 x 82</text>
</g>
<g id="clust6" class="cluster">
<title>cluster15</title>
<path fill="none" stroke="black" d="M280,-633.27C280,-633.27 440,-633.27 440,-633.27 446,-633.27 452,-639.27 452,-645.27 452,-645.27 452,-743.09 452,-743.09 452,-749.09 446,-755.09 440,-755.09 440,-755.09 280,-755.09 280,-755.09 274,-755.09 268,-749.09 268,-743.09 268,-743.09 268,-645.27 268,-645.27 268,-639.27 274,-633.27 280,-633.27"/>
<text xml:space="preserve" text-anchor="middle" x="437.25" y="-640.47" font-family="Times New Roman,serif" font-size="14.00">15</text>
</g>
<g id="clust7" class="cluster">
<title>cluster5 x 5</title>
<path fill="none" stroke="black" d="M392,-385.54C392,-385.54 502,-385.54 502,-385.54 508,-385.54 514,-391.54 514,-397.54 514,-397.54 514,-601.36 514,-601.36 514,-607.36 508,-613.36 502,-613.36 502,-613.36 392,-613.36 392,-613.36 386,-613.36 380,-607.36 380,-601.36 380,-601.36 380,-397.54 380,-397.54 380,-391.54 386,-385.54 392,-385.54"/>
<text xml:space="preserve" text-anchor="middle" x="492.12" y="-392.74" font-family="Times New Roman,serif" font-size="14.00">5 x 5</text>
</g>
<g id="clust8" class="cluster">
<title>cluster5</title>
<path fill="none" stroke="black" d="M110,-515.36C110,-515.36 328,-515.36 328,-515.36 334,-515.36 340,-521.36 340,-527.36 340,-527.36 340,-601.36 340,-601.36 340,-607.36 334,-613.36 328,-613.36 328,-613.36 110,-613.36 110,-613.36 104,-613.36 98,-607.36 98,-601.36 98,-601.36 98,-527.36 98,-527.36 98,-521.36 104,-515.36 110,-515.36"/>
<text xml:space="preserve" text-anchor="middle" x="328.62" y="-522.56" font-family="Times New Roman,serif" font-size="14.00">5</text>
</g>
<g id="clust9" class="cluster">
<title>cluster82 x 5</title>
<path fill="none" stroke="black" d="M278,-385.54C278,-385.54 360,-385.54 360,-385.54 366,-385.54 372,-391.54 372,-397.54 372,-397.54 372,-471.54 372,-471.54 372,-477.54 366,-483.54 360,-483.54 360,-483.54 278,-483.54 278,-483.54 272,-483.54 266,-477.54 266,-471.54 266,-471.54 266,-397.54 266,-397.54 266,-391.54 272,-385.54 278,-385.54"/>
<text xml:space="preserve" text-anchor="middle" x="346.75" y="-392.74" font-family="Times New Roman,serif" font-size="14.00">82 x 5</text>
</g>
<g id="clust10" class="cluster">
<title>cluster30</title>
<path fill="none" stroke="black" d="M534,-385.54C534,-385.54 666,-385.54 666,-385.54 672,-385.54 678,-391.54 678,-397.54 678,-397.54 678,-613.27 678,-613.27 678,-619.27 672,-625.27 666,-625.27 666,-625.27 534,-625.27 534,-625.27 528,-625.27 522,-619.27 522,-613.27 522,-613.27 522,-397.54 522,-397.54 522,-391.54 528,-385.54 534,-385.54"/>
<text xml:space="preserve" text-anchor="middle" x="663.25" y="-392.74" font-family="Times New Roman,serif" font-size="14.00">30</text>
</g>
<g id="clust11" class="cluster">
<title>cluster30 x 82</title>
<path fill="none" stroke="black" d="M698,-373.63C698,-373.63 804,-373.63 804,-373.63 810,-373.63 816,-379.63 816,-385.63 816,-385.63 816,-483.45 816,-483.45 816,-489.45 810,-495.45 804,-495.45 804,-495.45 698,-495.45 698,-495.45 692,-495.45 686,-489.45 686,-483.45 686,-483.45 686,-385.63 686,-385.63 686,-379.63 692,-373.63 698,-373.63"/>
<text xml:space="preserve" text-anchor="middle" x="787.38" y="-380.83" font-family="Times New Roman,serif" font-size="14.00">30 x 82</text>
</g>
<g id="clust12" class="cluster">
<title>cluster4 x 82</title>
<path fill="none" stroke="black" d="M836,-373.63C836,-373.63 1170,-373.63 1170,-373.63 1176,-373.63 1182,-379.63 1182,-385.63 1182,-385.63 1182,-483.45 1182,-483.45 1182,-489.45 1176,-495.45 1170,-495.45 1170,-495.45 836,-495.45 836,-495.45 830,-495.45 824,-489.45 824,-483.45 824,-483.45 824,-385.63 824,-385.63 824,-379.63 830,-373.63 836,-373.63"/>
<text xml:space="preserve" text-anchor="middle" x="1156.75" y="-380.83" font-family="Times New Roman,serif" font-size="14.00">4 x 82</text>
</g>
<g id="clust13" class="cluster">
<title>cluster36</title>
<path fill="none" stroke="black" d="M1806,-503.45C1806,-503.45 2527,-503.45 2527,-503.45 2533,-503.45 2539,-509.45 2539,-515.45 2539,-515.45 2539,-613.27 2539,-613.27 2539,-619.27 2533,-625.27 2527,-625.27 2527,-625.27 1806,-625.27 1806,-625.27 1800,-625.27 1794,-619.27 1794,-613.27 1794,-613.27 1794,-515.45 1794,-515.45 1794,-509.45 1800,-503.45 1806,-503.45"/>
<text xml:space="preserve" text-anchor="middle" x="2524.25" y="-510.65" font-family="Times New Roman,serif" font-size="14.00">36</text>
</g>
<g id="clust14" class="cluster">
<title>cluster8 x 8</title>
<path fill="none" stroke="black" d="M1202,-385.54C1202,-385.54 1824,-385.54 1824,-385.54 1830,-385.54 1836,-391.54 1836,-397.54 1836,-397.54 1836,-471.54 1836,-471.54 1836,-477.54 1830,-483.54 1824,-483.54 1824,-483.54 1202,-483.54 1202,-483.54 1196,-483.54 1190,-477.54 1190,-471.54 1190,-471.54 1190,-397.54 1190,-397.54 1190,-391.54 1196,-385.54 1202,-385.54"/>
<text xml:space="preserve" text-anchor="middle" x="1814.12" y="-392.74" font-family="Times New Roman,serif" font-size="14.00">8 x 8</text>
</g>
<g id="clust15" class="cluster">
<title>cluster8</title>
<path fill="none" stroke="black" d="M1856,-385.54C1856,-385.54 2478,-385.54 2478,-385.54 2484,-385.54 2490,-391.54 2490,-397.54 2490,-397.54 2490,-471.54 2490,-471.54 2490,-477.54 2484,-483.54 2478,-483.54 2478,-483.54 1856,-483.54 1856,-483.54 1850,-483.54 1844,-477.54 1844,-471.54 1844,-471.54 1844,-397.54 1844,-397.54 1844,-391.54 1850,-385.54 1856,-385.54"/>
<text xml:space="preserve" text-anchor="middle" x="2478.62" y="-392.74" font-family="Times New Roman,serif" font-size="14.00">8</text>
</g>
<g id="clust16" class="cluster">
<title>cluster8 x 82</title>
<path fill="none" stroke="black" d="M2656,-373.63C2656,-373.63 2750,-373.63 2750,-373.63 2756,-373.63 2762,-379.63 2762,-385.63 2762,-385.63 2762,-483.45 2762,-483.45 2762,-489.45 2756,-495.45 2750,-495.45 2750,-495.45 2656,-495.45 2656,-495.45 2650,-495.45 2644,-489.45 2644,-483.45 2644,-483.45 2644,-385.63 2644,-385.63 2644,-379.63 2650,-373.63 2656,-373.63"/>
<text xml:space="preserve" text-anchor="middle" x="2736.75" y="-380.83" font-family="Times New Roman,serif" font-size="14.00">8 x 82</text>
</g>
<g id="clust17" class="cluster">
<title>cluster2 x 82</title>
<path fill="none" stroke="black" d="M2782,-373.63C2782,-373.63 2876,-373.63 2876,-373.63 2882,-373.63 2888,-379.63 2888,-385.63 2888,-385.63 2888,-483.45 2888,-483.45 2888,-489.45 2882,-495.45 2876,-495.45 2876,-495.45 2782,-495.45 2782,-495.45 2776,-495.45 2770,-489.45 2770,-483.45 2770,-483.45 2770,-385.63 2770,-385.63 2770,-379.63 2776,-373.63 2782,-373.63"/>
<text xml:space="preserve" text-anchor="middle" x="2862.75" y="-380.83" font-family="Times New Roman,serif" font-size="14.00">2 x 82</text>
</g>
<g id="clust18" class="cluster">
<title>cluster82 x 30</title>
<path fill="none" stroke="black" d="M2126,-255.73C2126,-255.73 2208,-255.73 2208,-255.73 2214,-255.73 2220,-261.73 2220,-267.73 2220,-267.73 2220,-341.73 2220,-341.73 2220,-347.73 2214,-353.73 2208,-353.73 2208,-353.73 2126,-353.73 2126,-353.73 2120,-353.73 2114,-347.73 2114,-341.73 2114,-341.73 2114,-267.73 2114,-267.73 2114,-261.73 2120,-255.73 2126,-255.73"/>
<text xml:space="preserve" text-anchor="middle" x="2191.38" y="-262.93" font-family="Times New Roman,serif" font-size="14.00">82 x 30</text>
</g>
<g id="clust19" class="cluster">
<title>cluster5 x 1</title>
<path fill="none" stroke="black" d="M1633,-645.18C1633,-645.18 1715,-645.18 1715,-645.18 1721,-645.18 1727,-651.18 1727,-657.18 1727,-657.18 1727,-731.18 1727,-731.18 1727,-737.18 1721,-743.18 1715,-743.18 1715,-743.18 1633,-743.18 1633,-743.18 1627,-743.18 1621,-737.18 1621,-731.18 1621,-731.18 1621,-657.18 1621,-657.18 1621,-651.18 1627,-645.18 1633,-645.18"/>
<text xml:space="preserve" text-anchor="middle" x="1705.12" y="-652.38" font-family="Times New Roman,serif" font-size="14.00">5 x 1</text>
</g>
<g id="clust20" class="cluster">
<title>cluster37400 x 6</title>
<path fill="none" stroke="black" d="M164,-137.82C164,-137.82 246,-137.82 246,-137.82 252,-137.82 258,-143.82 258,-149.82 258,-149.82 258,-223.82 258,-223.82 258,-229.82 252,-235.82 246,-235.82 246,-235.82 164,-235.82 164,-235.82 158,-235.82 152,-229.82 152,-223.82 152,-223.82 152,-149.82 152,-149.82 152,-143.82 158,-137.82 164,-137.82"/>
<text xml:space="preserve" text-anchor="middle" x="222.62" y="-145.02" font-family="Times New Roman,serif" font-size="14.00">37400 x 6</text>
</g>
<g id="clust21" class="cluster">
<title>cluster37400</title>
<path fill="none" stroke="black" d="M154,-8C154,-8 256,-8 256,-8 262,-8 268,-14 268,-20 268,-20 268,-117.82 268,-117.82 268,-123.82 262,-129.82 256,-129.82 256,-129.82 154,-129.82 154,-129.82 148,-129.82 142,-123.82 142,-117.82 142,-117.82 142,-20 142,-20 142,-14 148,-8 154,-8"/>
<text xml:space="preserve" text-anchor="middle" x="243.12" y="-15.2" font-family="Times New Roman,serif" font-size="14.00">37400</text>
</g>
<!-- a -->
<g id="node1" class="node">
<title>a</title>
<ellipse fill="none" stroke="black" cx="82" cy="-316.98" rx="54.27" ry="40.66"/>
<text xml:space="preserve" text-anchor="middle" x="82" y="-328.43" font-family="Times New Roman,serif" font-size="14.00">a</text>
<text xml:space="preserve" text-anchor="middle" x="82" y="-311.93" font-family="Times New Roman,serif" font-size="14.00">~</text>
<text xml:space="preserve" text-anchor="middle" x="82" y="-295.43" font-family="Times New Roman,serif" font-size="14.00">Lognormal</text>
</g>
<!-- y_obs_probs -->
<g id="node35" class="node">
<title>y_obs_probs</title>
<polygon fill="none" stroke="black" points="250.12,-227.82 159.88,-227.82 159.88,-170.32 250.12,-170.32 250.12,-227.82"/>
<text xml:space="preserve" text-anchor="middle" x="205" y="-210.52" font-family="Times New Roman,serif" font-size="14.00">y_obs_probs</text>
<text xml:space="preserve" text-anchor="middle" x="205" y="-194.02" font-family="Times New Roman,serif" font-size="14.00">~</text>
<text xml:space="preserve" text-anchor="middle" x="205" y="-177.52" font-family="Times New Roman,serif" font-size="14.00">Deterministic</text>
</g>
<!-- a&#45;&gt;y_obs_probs -->
<g id="edge36" class="edge">
<title>a&#45;&gt;y_obs_probs</title>
<path fill="none" stroke="black" d="M110.74,-282.13C121.91,-269.63 135.11,-255.64 148,-243.82 151.08,-240.99 154.32,-238.16 157.64,-235.37"/>
<polygon fill="black" stroke="black" points="159.83,-238.11 165.36,-229.07 155.4,-232.68 159.83,-238.11"/>
</g>
<!-- first_cut -->
<g id="node2" class="node">
<title>first_cut</title>
<ellipse fill="none" stroke="black" cx="93" cy="-446.79" rx="43.13" ry="40.66"/>
<text xml:space="preserve" text-anchor="middle" x="93" y="-458.24" font-family="Times New Roman,serif" font-size="14.00">first_cut</text>
<text xml:space="preserve" text-anchor="middle" x="93" y="-441.74" font-family="Times New Roman,serif" font-size="14.00">~</text>
<text xml:space="preserve" text-anchor="middle" x="93" y="-425.24" font-family="Times New Roman,serif" font-size="14.00">Normal</text>
</g>
<!-- cutpoints -->
<g id="node4" class="node">
<title>cutpoints</title>
<polygon fill="none" stroke="black" points="250.12,-345.73 159.88,-345.73 159.88,-288.23 250.12,-288.23 250.12,-345.73"/>
<text xml:space="preserve" text-anchor="middle" x="205" y="-328.43" font-family="Times New Roman,serif" font-size="14.00">cutpoints</text>
<text xml:space="preserve" text-anchor="middle" x="205" y="-311.93" font-family="Times New Roman,serif" font-size="14.00">~</text>
<text xml:space="preserve" text-anchor="middle" x="205" y="-295.43" font-family="Times New Roman,serif" font-size="14.00">Deterministic</text>
</g>
<!-- first_cut&#45;&gt;cutpoints -->
<g id="edge2" class="edge">
<title>first_cut&#45;&gt;cutpoints</title>
<path fill="none" stroke="black" d="M116.66,-412.66C126.03,-400.11 137.15,-385.9 148,-373.63 153.8,-367.08 160.21,-360.36 166.59,-353.97"/>
<polygon fill="black" stroke="black" points="168.85,-356.65 173.51,-347.14 163.93,-351.67 168.85,-356.65"/>
</g>
<!-- cut_diffs -->
<g id="node3" class="node">
<title>cut_diffs</title>
<ellipse fill="none" stroke="black" cx="205" cy="-446.79" rx="45.25" ry="40.66"/>
<text xml:space="preserve" text-anchor="middle" x="205" y="-458.24" font-family="Times New Roman,serif" font-size="14.00">cut_diffs</text>
<text xml:space="preserve" text-anchor="middle" x="205" y="-441.74" font-family="Times New Roman,serif" font-size="14.00">~</text>
<text xml:space="preserve" text-anchor="middle" x="205" y="-425.24" font-family="Times New Roman,serif" font-size="14.00">Gamma</text>
</g>
<!-- cut_diffs&#45;&gt;cutpoints -->
<g id="edge1" class="edge">
<title>cut_diffs&#45;&gt;cutpoints</title>
<path fill="none" stroke="black" d="M205,-405.7C205,-390.3 205,-372.74 205,-357.4"/>
<polygon fill="black" stroke="black" points="208.5,-357.69 205,-347.69 201.5,-357.69 208.5,-357.69"/>
</g>
<!-- cutpoints&#45;&gt;y_obs_probs -->
<g id="edge35" class="edge">
<title>cutpoints&#45;&gt;y_obs_probs</title>
<path fill="none" stroke="black" d="M205,-287.92C205,-273.36 205,-255.34 205,-239.41"/>
<polygon fill="black" stroke="black" points="208.5,-239.78 205,-229.78 201.5,-239.78 208.5,-239.78"/>
</g>
<!-- z_sec -->
<g id="node5" class="node">
<title>z_sec</title>
<ellipse fill="none" stroke="black" cx="49" cy="-576.61" rx="32.53" ry="40.66"/>
<text xml:space="preserve" text-anchor="middle" x="49" y="-588.06" font-family="Times New Roman,serif" font-size="14.00">z_sec</text>
<text xml:space="preserve" text-anchor="middle" x="49" y="-571.56" font-family="Times New Roman,serif" font-size="14.00">~</text>
<text xml:space="preserve" text-anchor="middle" x="49" y="-555.06" font-family="Times New Roman,serif" font-size="14.00">T</text>
</g>
<!-- theta_sec -->
<g id="node11" class="node">
<title>theta_sec</title>
<polygon fill="none" stroke="black" points="364.12,-475.54 273.88,-475.54 273.88,-418.04 364.12,-418.04 364.12,-475.54"/>
<text xml:space="preserve" text-anchor="middle" x="319" y="-458.24" font-family="Times New Roman,serif" font-size="14.00">theta_sec</text>
<text xml:space="preserve" text-anchor="middle" x="319" y="-441.74" font-family="Times New Roman,serif" font-size="14.00">~</text>
<text xml:space="preserve" text-anchor="middle" x="319" y="-425.24" font-family="Times New Roman,serif" font-size="14.00">Deterministic</text>
</g>
<!-- z_sec&#45;&gt;theta_sec -->
<g id="edge5" class="edge">
<title>z_sec&#45;&gt;theta_sec</title>
<path fill="none" stroke="black" d="M62.74,-539.61C69.9,-525.88 80.12,-511.59 94,-503.45 126.24,-484.54 227.18,-509.04 262,-495.45 269.68,-492.45 277.08,-487.98 283.86,-482.96"/>
<polygon fill="black" stroke="black" points="285.92,-485.8 291.52,-476.8 281.53,-480.34 285.92,-485.8"/>
</g>
<!-- chol_cov_sec -->
<g id="node6" class="node">
<title>chol_cov_sec</title>
<ellipse fill="none" stroke="black" cx="360" cy="-706.43" rx="84.5" ry="40.66"/>
<text xml:space="preserve" text-anchor="middle" x="360" y="-717.88" font-family="Times New Roman,serif" font-size="14.00">chol_cov_sec</text>
<text xml:space="preserve" text-anchor="middle" x="360" y="-701.38" font-family="Times New Roman,serif" font-size="14.00">~</text>
<text xml:space="preserve" text-anchor="middle" x="360" y="-684.88" font-family="Times New Roman,serif" font-size="14.00">_LKJCholeskyCov</text>
</g>
<!-- chol_cov_sec_corr -->
<g id="node7" class="node">
<title>chol_cov_sec_corr</title>
<polygon fill="none" stroke="black" points="506,-605.36 388,-605.36 388,-547.86 506,-547.86 506,-605.36"/>
<text xml:space="preserve" text-anchor="middle" x="447" y="-588.06" font-family="Times New Roman,serif" font-size="14.00">chol_cov_sec_corr</text>
<text xml:space="preserve" text-anchor="middle" x="447" y="-571.56" font-family="Times New Roman,serif" font-size="14.00">~</text>
<text xml:space="preserve" text-anchor="middle" x="447" y="-555.06" font-family="Times New Roman,serif" font-size="14.00">Deterministic</text>
</g>
<!-- chol_cov_sec&#45;&gt;chol_cov_sec_corr -->
<g id="edge3" class="edge">
<title>chol_cov_sec&#45;&gt;chol_cov_sec_corr</title>
<path fill="none" stroke="black" d="M385.87,-667.42C397.17,-650.82 410.39,-631.4 421.64,-614.87"/>
<polygon fill="black" stroke="black" points="424.42,-617.01 427.15,-606.77 418.63,-613.07 424.42,-617.01"/>
</g>
<!-- chol_cov_sec_stds -->
<g id="node9" class="node">
<title>chol_cov_sec_stds</title>
<polygon fill="none" stroke="black" points="223.62,-605.36 106.38,-605.36 106.38,-547.86 223.62,-547.86 223.62,-605.36"/>
<text xml:space="preserve" text-anchor="middle" x="165" y="-588.06" font-family="Times New Roman,serif" font-size="14.00">chol_cov_sec_stds</text>
<text xml:space="preserve" text-anchor="middle" x="165" y="-571.56" font-family="Times New Roman,serif" font-size="14.00">~</text>
<text xml:space="preserve" text-anchor="middle" x="165" y="-555.06" font-family="Times New Roman,serif" font-size="14.00">Deterministic</text>
</g>
<!-- chol_cov_sec&#45;&gt;chol_cov_sec_stds -->
<g id="edge4" class="edge">
<title>chol_cov_sec&#45;&gt;chol_cov_sec_stds</title>
<path fill="none" stroke="black" d="M308.66,-673.81C285.39,-659.28 257.64,-641.66 233,-625.27 226.71,-621.08 220.15,-616.61 213.68,-612.15"/>
<polygon fill="black" stroke="black" points="215.78,-609.35 205.57,-606.52 211.79,-615.1 215.78,-609.35"/>
</g>
<!-- chol_cov_sec&#45;&gt;theta_sec -->
<g id="edge7" class="edge">
<title>chol_cov_sec&#45;&gt;theta_sec</title>
<path fill="none" stroke="black" d="M360.83,-665.29C360.75,-624.06 358.04,-558.31 344,-503.45 342.56,-497.82 340.59,-492.05 338.38,-486.46"/>
<polygon fill="black" stroke="black" points="341.66,-485.22 334.51,-477.39 335.22,-487.96 341.66,-485.22"/>
</g>
<!-- Omega -->
<g id="node8" class="node">
<title>Omega</title>
<polygon fill="none" stroke="black" points="492.12,-475.54 401.88,-475.54 401.88,-418.04 492.12,-418.04 492.12,-475.54"/>
<text xml:space="preserve" text-anchor="middle" x="447" y="-458.24" font-family="Times New Roman,serif" font-size="14.00">Omega</text>
<text xml:space="preserve" text-anchor="middle" x="447" y="-441.74" font-family="Times New Roman,serif" font-size="14.00">~</text>
<text xml:space="preserve" text-anchor="middle" x="447" y="-425.24" font-family="Times New Roman,serif" font-size="14.00">Deterministic</text>
</g>
<!-- chol_cov_sec_corr&#45;&gt;Omega -->
<g id="edge34" class="edge">
<title>chol_cov_sec_corr&#45;&gt;Omega</title>
<path fill="none" stroke="black" d="M447,-547.56C447,-529.83 447,-506.65 447,-487.1"/>
<polygon fill="black" stroke="black" points="450.5,-487.29 447,-477.29 443.5,-487.29 450.5,-487.29"/>
</g>
<!-- chol_cov_sec_stds&#45;&gt;theta_sec -->
<g id="edge6" class="edge">
<title>chol_cov_sec_stds&#45;&gt;theta_sec</title>
<path fill="none" stroke="black" d="M185.13,-547.7C197.39,-532.58 214.27,-514.73 233,-503.45 244.45,-496.55 250.16,-501.66 262,-495.45 268.68,-491.95 275.28,-487.56 281.49,-482.88"/>
<polygon fill="black" stroke="black" points="283.46,-485.79 289.09,-476.81 279.09,-480.32 283.46,-485.79"/>
</g>
<!-- sigma -->
<g id="node10" class="node">
<title>sigma</title>
<polygon fill="none" stroke="black" points="332.12,-605.36 241.88,-605.36 241.88,-547.86 332.12,-547.86 332.12,-605.36"/>
<text xml:space="preserve" text-anchor="middle" x="287" y="-588.06" font-family="Times New Roman,serif" font-size="14.00">sigma</text>
<text xml:space="preserve" text-anchor="middle" x="287" y="-571.56" font-family="Times New Roman,serif" font-size="14.00">~</text>
<text xml:space="preserve" text-anchor="middle" x="287" y="-555.06" font-family="Times New Roman,serif" font-size="14.00">Deterministic</text>
</g>
<!-- theta_cat -->
<g id="node33" class="node">
<title>theta_cat</title>
<polygon fill="none" stroke="black" points="2212.12,-345.73 2121.88,-345.73 2121.88,-288.23 2212.12,-288.23 2212.12,-345.73"/>
<text xml:space="preserve" text-anchor="middle" x="2167" y="-328.43" font-family="Times New Roman,serif" font-size="14.00">theta_cat</text>
<text xml:space="preserve" text-anchor="middle" x="2167" y="-311.93" font-family="Times New Roman,serif" font-size="14.00">~</text>
<text xml:space="preserve" text-anchor="middle" x="2167" y="-295.43" font-family="Times New Roman,serif" font-size="14.00">Deterministic</text>
</g>
<!-- theta_sec&#45;&gt;theta_cat -->
<g id="edge26" class="edge">
<title>theta_sec&#45;&gt;theta_cat</title>
<path fill="none" stroke="black" d="M333.14,-417.71C342.83,-401.72 357.32,-383.04 376,-373.63 455.16,-333.75 1813.42,-320.77 2110.07,-318.4"/>
<polygon fill="black" stroke="black" points="2109.9,-321.9 2119.88,-318.32 2109.85,-314.9 2109.9,-321.9"/>
</g>
<!-- sigma_cat -->
<g id="node12" class="node">
<title>sigma_cat</title>
<polygon fill="none" stroke="black" points="657.12,-475.54 566.88,-475.54 566.88,-418.04 657.12,-418.04 657.12,-475.54"/>
<text xml:space="preserve" text-anchor="middle" x="612" y="-458.24" font-family="Times New Roman,serif" font-size="14.00">sigma_cat</text>
<text xml:space="preserve" text-anchor="middle" x="612" y="-441.74" font-family="Times New Roman,serif" font-size="14.00">~</text>
<text xml:space="preserve" text-anchor="middle" x="612" y="-425.24" font-family="Times New Roman,serif" font-size="14.00">Deterministic</text>
</g>
<!-- sigma_cat&#45;&gt;theta_cat -->
<g id="edge17" class="edge">
<title>sigma_cat&#45;&gt;theta_cat</title>
<path fill="none" stroke="black" d="M630.83,-417.64C643.27,-401.61 661.11,-382.94 682,-373.63 814.16,-314.77 1854.75,-316.33 2110.42,-317.62"/>
<polygon fill="black" stroke="black" points="2110.11,-321.12 2120.13,-317.67 2110.15,-314.12 2110.11,-321.12"/>
</g>
<!-- sigma_cat_raw -->
<g id="node13" class="node">
<title>sigma_cat_raw</title>
<ellipse fill="none" stroke="black" cx="600" cy="-576.61" rx="69.65" ry="40.66"/>
<text xml:space="preserve" text-anchor="middle" x="600" y="-588.06" font-family="Times New Roman,serif" font-size="14.00">sigma_cat_raw</text>
<text xml:space="preserve" text-anchor="middle" x="600" y="-571.56" font-family="Times New Roman,serif" font-size="14.00">~</text>
<text xml:space="preserve" text-anchor="middle" x="600" y="-555.06" font-family="Times New Roman,serif" font-size="14.00">Halfnormal</text>
</g>
<!-- sigma_cat_raw&#45;&gt;sigma_cat -->
<g id="edge8" class="edge">
<title>sigma_cat_raw&#45;&gt;sigma_cat</title>
<path fill="none" stroke="black" d="M603.76,-535.52C605.21,-520.12 606.86,-502.56 608.3,-487.22"/>
<polygon fill="black" stroke="black" points="611.76,-487.79 609.21,-477.5 604.79,-487.13 611.76,-487.79"/>
</g>
<!-- z_cat_indep -->
<g id="node14" class="node">
<title>z_cat_indep</title>
<ellipse fill="none" stroke="black" cx="751" cy="-446.79" rx="57.45" ry="40.66"/>
<text xml:space="preserve" text-anchor="middle" x="751" y="-458.24" font-family="Times New Roman,serif" font-size="14.00">z_cat_indep</text>
<text xml:space="preserve" text-anchor="middle" x="751" y="-441.74" font-family="Times New Roman,serif" font-size="14.00">~</text>
<text xml:space="preserve" text-anchor="middle" x="751" y="-425.24" font-family="Times New Roman,serif" font-size="14.00">T</text>
</g>
<!-- z_cat_indep&#45;&gt;theta_cat -->
<g id="edge19" class="edge">
<title>z_cat_indep&#45;&gt;theta_cat</title>
<path fill="none" stroke="black" d="M775.78,-409.82C787.44,-395.92 802.63,-381.49 820,-373.63 938.69,-319.98 1869.45,-317.55 2110.27,-317.83"/>
<polygon fill="black" stroke="black" points="2110.02,-321.33 2120.03,-317.84 2110.03,-314.33 2110.02,-321.33"/>
</g>
<!-- z_block_1 -->
<g id="node15" class="node">
<title>z_block_1</title>
<ellipse fill="none" stroke="black" cx="883" cy="-446.79" rx="51.09" ry="40.66"/>
<text xml:space="preserve" text-anchor="middle" x="883" y="-458.24" font-family="Times New Roman,serif" font-size="14.00">z_block_1</text>
<text xml:space="preserve" text-anchor="middle" x="883" y="-441.74" font-family="Times New Roman,serif" font-size="14.00">~</text>
<text xml:space="preserve" text-anchor="middle" x="883" y="-425.24" font-family="Times New Roman,serif" font-size="14.00">T</text>
</g>
<!-- z_block_1&#45;&gt;theta_cat -->
<g id="edge28" class="edge">
<title>z_block_1&#45;&gt;theta_cat</title>
<path fill="none" stroke="black" d="M903.9,-409.56C913.86,-395.79 927.1,-381.54 943,-373.63 1048.2,-321.34 1883.28,-317.85 2110.24,-317.88"/>
<polygon fill="black" stroke="black" points="2110.01,-321.38 2120.01,-317.88 2110.01,-314.38 2110.01,-321.38"/>
</g>
<!-- z_block_2 -->
<g id="node16" class="node">
<title>z_block_2</title>
<ellipse fill="none" stroke="black" cx="1003" cy="-446.79" rx="51.09" ry="40.66"/>
<text xml:space="preserve" text-anchor="middle" x="1003" y="-458.24" font-family="Times New Roman,serif" font-size="14.00">z_block_2</text>
<text xml:space="preserve" text-anchor="middle" x="1003" y="-441.74" font-family="Times New Roman,serif" font-size="14.00">~</text>
<text xml:space="preserve" text-anchor="middle" x="1003" y="-425.24" font-family="Times New Roman,serif" font-size="14.00">T</text>
</g>
<!-- z_block_2&#45;&gt;theta_cat -->
<g id="edge32" class="edge">
<title>z_block_2&#45;&gt;theta_cat</title>
<path fill="none" stroke="black" d="M1023.92,-409.6C1033.88,-395.84 1047.12,-381.58 1063,-373.63 1156.91,-326.66 1897.17,-319.33 2109.97,-318.18"/>
<polygon fill="black" stroke="black" points="2109.97,-321.68 2119.95,-318.13 2109.93,-314.68 2109.97,-321.68"/>
</g>
<!-- z_block_0 -->
<g id="node17" class="node">
<title>z_block_0</title>
<ellipse fill="none" stroke="black" cx="1123" cy="-446.79" rx="51.09" ry="40.66"/>
<text xml:space="preserve" text-anchor="middle" x="1123" y="-458.24" font-family="Times New Roman,serif" font-size="14.00">z_block_0</text>
<text xml:space="preserve" text-anchor="middle" x="1123" y="-441.74" font-family="Times New Roman,serif" font-size="14.00">~</text>
<text xml:space="preserve" text-anchor="middle" x="1123" y="-425.24" font-family="Times New Roman,serif" font-size="14.00">T</text>
</g>
<!-- z_block_0&#45;&gt;theta_cat -->
<g id="edge18" class="edge">
<title>z_block_0&#45;&gt;theta_cat</title>
<path fill="none" stroke="black" d="M1145.07,-410C1155.62,-396.12 1169.57,-381.67 1186,-373.63 1268.92,-333.08 1912.94,-321.31 2109.94,-318.65"/>
<polygon fill="black" stroke="black" points="2109.98,-322.15 2119.93,-318.51 2109.88,-315.15 2109.98,-322.15"/>
</g>
<!-- chol_cov_block_2 -->
<g id="node18" class="node">
<title>chol_cov_block_2</title>
<ellipse fill="none" stroke="black" cx="1886" cy="-576.61" rx="84.5" ry="40.66"/>
<text xml:space="preserve" text-anchor="middle" x="1886" y="-588.06" font-family="Times New Roman,serif" font-size="14.00">chol_cov_block_2</text>
<text xml:space="preserve" text-anchor="middle" x="1886" y="-571.56" font-family="Times New Roman,serif" font-size="14.00">~</text>
<text xml:space="preserve" text-anchor="middle" x="1886" y="-555.06" font-family="Times New Roman,serif" font-size="14.00">_LKJCholeskyCov</text>
</g>
<!-- chol_cov_block_2_corr -->
<g id="node23" class="node">
<title>chol_cov_block_2_corr</title>
<polygon fill="none" stroke="black" points="1342.12,-475.54 1197.88,-475.54 1197.88,-418.04 1342.12,-418.04 1342.12,-475.54"/>
<text xml:space="preserve" text-anchor="middle" x="1270" y="-458.24" font-family="Times New Roman,serif" font-size="14.00">chol_cov_block_2_corr</text>
<text xml:space="preserve" text-anchor="middle" x="1270" y="-441.74" font-family="Times New Roman,serif" font-size="14.00">~</text>
<text xml:space="preserve" text-anchor="middle" x="1270" y="-425.24" font-family="Times New Roman,serif" font-size="14.00">Deterministic</text>
</g>
<!-- chol_cov_block_2&#45;&gt;chol_cov_block_2_corr -->
<g id="edge13" class="edge">
<title>chol_cov_block_2&#45;&gt;chol_cov_block_2_corr</title>
<path fill="none" stroke="black" d="M1801.59,-572.87C1694.09,-567.17 1503.94,-549.6 1351,-495.45 1340.84,-491.85 1330.53,-486.94 1320.83,-481.63"/>
<polygon fill="black" stroke="black" points="1322.69,-478.67 1312.28,-476.74 1319.22,-484.74 1322.69,-478.67"/>
</g>
<!-- chol_cov_block_2_stds -->
<g id="node26" class="node">
<title>chol_cov_block_2_stds</title>
<polygon fill="none" stroke="black" points="1995.75,-475.54 1852.25,-475.54 1852.25,-418.04 1995.75,-418.04 1995.75,-475.54"/>
<text xml:space="preserve" text-anchor="middle" x="1924" y="-458.24" font-family="Times New Roman,serif" font-size="14.00">chol_cov_block_2_stds</text>
<text xml:space="preserve" text-anchor="middle" x="1924" y="-441.74" font-family="Times New Roman,serif" font-size="14.00">~</text>
<text xml:space="preserve" text-anchor="middle" x="1924" y="-425.24" font-family="Times New Roman,serif" font-size="14.00">Deterministic</text>
</g>
<!-- chol_cov_block_2&#45;&gt;chol_cov_block_2_stds -->
<g id="edge14" class="edge">
<title>chol_cov_block_2&#45;&gt;chol_cov_block_2_stds</title>
<path fill="none" stroke="black" d="M1897.82,-535.87C1902.48,-520.18 1907.82,-502.22 1912.46,-486.62"/>
<polygon fill="black" stroke="black" points="1915.76,-487.79 1915.26,-477.2 1909.05,-485.79 1915.76,-487.79"/>
</g>
<!-- chol_cov_block_2&#45;&gt;theta_cat -->
<g id="edge25" class="edge">
<title>chol_cov_block_2&#45;&gt;theta_cat</title>
<path fill="none" stroke="black" d="M1921.55,-539.61C1937.9,-525.53 1958.43,-510.96 1980,-503.45 1993.49,-498.76 2483.98,-505.63 2494,-495.45 2531.98,-456.87 2528.92,-415.01 2494,-373.63 2460.07,-333.45 2308.09,-322.27 2223.78,-319.17"/>
<polygon fill="black" stroke="black" points="2223.98,-315.67 2213.87,-318.83 2223.75,-322.67 2223.98,-315.67"/>
</g>
<!-- chol_cov_block_1 -->
<g id="node19" class="node">
<title>chol_cov_block_1</title>
<ellipse fill="none" stroke="black" cx="2073" cy="-576.61" rx="84.5" ry="40.66"/>
<text xml:space="preserve" text-anchor="middle" x="2073" y="-588.06" font-family="Times New Roman,serif" font-size="14.00">chol_cov_block_1</text>
<text xml:space="preserve" text-anchor="middle" x="2073" y="-571.56" font-family="Times New Roman,serif" font-size="14.00">~</text>
<text xml:space="preserve" text-anchor="middle" x="2073" y="-555.06" font-family="Times New Roman,serif" font-size="14.00">_LKJCholeskyCov</text>
</g>
<!-- chol_cov_block_1_corr -->
<g id="node22" class="node">
<title>chol_cov_block_1_corr</title>
<polygon fill="none" stroke="black" points="1504.12,-475.54 1359.88,-475.54 1359.88,-418.04 1504.12,-418.04 1504.12,-475.54"/>
<text xml:space="preserve" text-anchor="middle" x="1432" y="-458.24" font-family="Times New Roman,serif" font-size="14.00">chol_cov_block_1_corr</text>
<text xml:space="preserve" text-anchor="middle" x="1432" y="-441.74" font-family="Times New Roman,serif" font-size="14.00">~</text>
<text xml:space="preserve" text-anchor="middle" x="1432" y="-425.24" font-family="Times New Roman,serif" font-size="14.00">Deterministic</text>
</g>
<!-- chol_cov_block_1&#45;&gt;chol_cov_block_1_corr -->
<g id="edge11" class="edge">
<title>chol_cov_block_1&#45;&gt;chol_cov_block_1_corr</title>
<path fill="none" stroke="black" d="M2037.44,-539.63C2021.1,-525.55 2000.56,-510.98 1979,-503.45 1930.11,-486.38 1562.85,-509.49 1513,-495.45 1501.81,-492.3 1490.58,-487.21 1480.19,-481.51"/>
<polygon fill="black" stroke="black" points="1482.24,-478.65 1471.83,-476.66 1478.72,-484.71 1482.24,-478.65"/>
</g>
<!-- chol_cov_block_1_stds -->
<g id="node27" class="node">
<title>chol_cov_block_1_stds</title>
<polygon fill="none" stroke="black" points="2157.75,-475.54 2014.25,-475.54 2014.25,-418.04 2157.75,-418.04 2157.75,-475.54"/>
<text xml:space="preserve" text-anchor="middle" x="2086" y="-458.24" font-family="Times New Roman,serif" font-size="14.00">chol_cov_block_1_stds</text>
<text xml:space="preserve" text-anchor="middle" x="2086" y="-441.74" font-family="Times New Roman,serif" font-size="14.00">~</text>
<text xml:space="preserve" text-anchor="middle" x="2086" y="-425.24" font-family="Times New Roman,serif" font-size="14.00">Deterministic</text>
</g>
<!-- chol_cov_block_1&#45;&gt;chol_cov_block_1_stds -->
<g id="edge12" class="edge">
<title>chol_cov_block_1&#45;&gt;chol_cov_block_1_stds</title>
<path fill="none" stroke="black" d="M2077.08,-535.52C2078.64,-520.12 2080.43,-502.56 2081.99,-487.22"/>
<polygon fill="black" stroke="black" points="2085.45,-487.81 2082.98,-477.5 2078.48,-487.1 2085.45,-487.81"/>
</g>
<!-- chol_cov_block_1&#45;&gt;theta_cat -->
<g id="edge27" class="edge">
<title>chol_cov_block_1&#45;&gt;theta_cat</title>
<path fill="none" stroke="black" d="M2108.58,-539.69C2124.93,-525.61 2145.46,-511.04 2167,-503.45 2185.71,-496.86 2510.13,-509.64 2524,-495.45 2561.85,-456.74 2559.21,-414.76 2524,-373.63 2486.04,-329.3 2314.62,-320.01 2223.83,-318.24"/>
<polygon fill="black" stroke="black" points="2223.95,-314.74 2213.89,-318.08 2223.83,-321.74 2223.95,-314.74"/>
</g>
<!-- chol_cov_block_3 -->
<g id="node20" class="node">
<title>chol_cov_block_3</title>
<ellipse fill="none" stroke="black" cx="2260" cy="-576.61" rx="84.5" ry="40.66"/>
<text xml:space="preserve" text-anchor="middle" x="2260" y="-588.06" font-family="Times New Roman,serif" font-size="14.00">chol_cov_block_3</text>
<text xml:space="preserve" text-anchor="middle" x="2260" y="-571.56" font-family="Times New Roman,serif" font-size="14.00">~</text>
<text xml:space="preserve" text-anchor="middle" x="2260" y="-555.06" font-family="Times New Roman,serif" font-size="14.00">_LKJCholeskyCov</text>
</g>
<!-- chol_cov_block_3_corr -->
<g id="node25" class="node">
<title>chol_cov_block_3_corr</title>
<polygon fill="none" stroke="black" points="1666.12,-475.54 1521.88,-475.54 1521.88,-418.04 1666.12,-418.04 1666.12,-475.54"/>
<text xml:space="preserve" text-anchor="middle" x="1594" y="-458.24" font-family="Times New Roman,serif" font-size="14.00">chol_cov_block_3_corr</text>
<text xml:space="preserve" text-anchor="middle" x="1594" y="-441.74" font-family="Times New Roman,serif" font-size="14.00">~</text>
<text xml:space="preserve" text-anchor="middle" x="1594" y="-425.24" font-family="Times New Roman,serif" font-size="14.00">Deterministic</text>
</g>
<!-- chol_cov_block_3&#45;&gt;chol_cov_block_3_corr -->
<g id="edge15" class="edge">
<title>chol_cov_block_3&#45;&gt;chol_cov_block_3_corr</title>
<path fill="none" stroke="black" d="M2224.45,-539.62C2208.1,-525.54 2187.56,-510.97 2166,-503.45 2114.48,-485.49 1727.53,-510.22 1675,-495.45 1663.81,-492.31 1652.58,-487.22 1642.19,-481.52"/>
<polygon fill="black" stroke="black" points="1644.23,-478.66 1633.83,-476.67 1640.72,-484.71 1644.23,-478.66"/>
</g>
<!-- chol_cov_block_3_stds -->
<g id="node28" class="node">
<title>chol_cov_block_3_stds</title>
<polygon fill="none" stroke="black" points="2319.75,-475.54 2176.25,-475.54 2176.25,-418.04 2319.75,-418.04 2319.75,-475.54"/>
<text xml:space="preserve" text-anchor="middle" x="2248" y="-458.24" font-family="Times New Roman,serif" font-size="14.00">chol_cov_block_3_stds</text>
<text xml:space="preserve" text-anchor="middle" x="2248" y="-441.74" font-family="Times New Roman,serif" font-size="14.00">~</text>
<text xml:space="preserve" text-anchor="middle" x="2248" y="-425.24" font-family="Times New Roman,serif" font-size="14.00">Deterministic</text>
</g>
<!-- chol_cov_block_3&#45;&gt;chol_cov_block_3_stds -->
<g id="edge16" class="edge">
<title>chol_cov_block_3&#45;&gt;chol_cov_block_3_stds</title>
<path fill="none" stroke="black" d="M2256.24,-535.52C2254.79,-520.12 2253.14,-502.56 2251.7,-487.22"/>
<polygon fill="black" stroke="black" points="2255.21,-487.13 2250.79,-477.5 2248.24,-487.79 2255.21,-487.13"/>
</g>
<!-- chol_cov_block_3&#45;&gt;theta_cat -->
<g id="edge30" class="edge">
<title>chol_cov_block_3&#45;&gt;theta_cat</title>
<path fill="none" stroke="black" d="M2296.08,-539.47C2312.37,-525.54 2332.71,-511.14 2354,-503.45 2375.75,-495.6 2545.96,-512.12 2562,-495.45 2599.54,-456.44 2597.51,-414.5 2562,-373.63 2518.85,-323.98 2322.21,-317.37 2223.66,-317.26"/>
<polygon fill="black" stroke="black" points="2223.93,-313.76 2213.94,-317.28 2223.94,-320.76 2223.93,-313.76"/>
</g>
<!-- chol_cov_block_0 -->
<g id="node21" class="node">
<title>chol_cov_block_0</title>
<ellipse fill="none" stroke="black" cx="2447" cy="-576.61" rx="84.5" ry="40.66"/>
<text xml:space="preserve" text-anchor="middle" x="2447" y="-588.06" font-family="Times New Roman,serif" font-size="14.00">chol_cov_block_0</text>
<text xml:space="preserve" text-anchor="middle" x="2447" y="-571.56" font-family="Times New Roman,serif" font-size="14.00">~</text>
<text xml:space="preserve" text-anchor="middle" x="2447" y="-555.06" font-family="Times New Roman,serif" font-size="14.00">_LKJCholeskyCov</text>
</g>
<!-- chol_cov_block_0_corr -->
<g id="node24" class="node">
<title>chol_cov_block_0_corr</title>
<polygon fill="none" stroke="black" points="1828.12,-475.54 1683.88,-475.54 1683.88,-418.04 1828.12,-418.04 1828.12,-475.54"/>
<text xml:space="preserve" text-anchor="middle" x="1756" y="-458.24" font-family="Times New Roman,serif" font-size="14.00">chol_cov_block_0_corr</text>
<text xml:space="preserve" text-anchor="middle" x="1756" y="-441.74" font-family="Times New Roman,serif" font-size="14.00">~</text>
<text xml:space="preserve" text-anchor="middle" x="1756" y="-425.24" font-family="Times New Roman,serif" font-size="14.00">Deterministic</text>
</g>
<!-- chol_cov_block_0&#45;&gt;chol_cov_block_0_corr -->
<g id="edge9" class="edge">
<title>chol_cov_block_0&#45;&gt;chol_cov_block_0_corr</title>
<path fill="none" stroke="black" d="M2411.45,-539.61C2395.1,-525.53 2374.57,-510.96 2353,-503.45 2299.16,-484.7 1895,-510.43 1840,-495.45 1828.48,-492.31 1816.86,-487.23 1806.1,-481.53"/>
<polygon fill="black" stroke="black" points="1807.83,-478.49 1797.39,-476.66 1804.41,-484.6 1807.83,-478.49"/>
</g>
<!-- chol_cov_block_0_stds -->
<g id="node29" class="node">
<title>chol_cov_block_0_stds</title>
<polygon fill="none" stroke="black" points="2481.75,-475.54 2338.25,-475.54 2338.25,-418.04 2481.75,-418.04 2481.75,-475.54"/>
<text xml:space="preserve" text-anchor="middle" x="2410" y="-458.24" font-family="Times New Roman,serif" font-size="14.00">chol_cov_block_0_stds</text>
<text xml:space="preserve" text-anchor="middle" x="2410" y="-441.74" font-family="Times New Roman,serif" font-size="14.00">~</text>
<text xml:space="preserve" text-anchor="middle" x="2410" y="-425.24" font-family="Times New Roman,serif" font-size="14.00">Deterministic</text>
</g>
<!-- chol_cov_block_0&#45;&gt;chol_cov_block_0_stds -->
<g id="edge10" class="edge">
<title>chol_cov_block_0&#45;&gt;chol_cov_block_0_stds</title>
<path fill="none" stroke="black" d="M2435.5,-535.87C2430.96,-520.18 2425.75,-502.22 2421.24,-486.62"/>
<polygon fill="black" stroke="black" points="2424.66,-485.84 2418.51,-477.21 2417.93,-487.78 2424.66,-485.84"/>
</g>
<!-- chol_cov_block_0&#45;&gt;theta_cat -->
<g id="edge23" class="edge">
<title>chol_cov_block_0&#45;&gt;theta_cat</title>
<path fill="none" stroke="black" d="M2517.29,-553.83C2545.03,-541.4 2574.03,-522.71 2590,-495.45 2617.37,-448.74 2625.7,-414.34 2590,-373.63 2566.21,-346.51 2333.57,-328.43 2223.8,-321.34"/>
<polygon fill="black" stroke="black" points="2224.33,-317.87 2214.13,-320.73 2223.89,-324.86 2224.33,-317.87"/>
</g>
<!-- chol_cov_block_2_stds&#45;&gt;theta_cat -->
<g id="edge29" class="edge">
<title>chol_cov_block_2_stds&#45;&gt;theta_cat</title>
<path fill="none" stroke="black" d="M1949.96,-417.78C1964.89,-403 1984.68,-385.52 2005,-373.63 2037.83,-354.43 2078.3,-340.52 2110.58,-331.41"/>
<polygon fill="black" stroke="black" points="2111.45,-334.8 2120.17,-328.78 2109.6,-328.05 2111.45,-334.8"/>
</g>
<!-- chol_cov_block_1_stds&#45;&gt;theta_cat -->
<g id="edge20" class="edge">
<title>chol_cov_block_1_stds&#45;&gt;theta_cat</title>
<path fill="none" stroke="black" d="M2103.78,-417.74C2115.33,-399.51 2130.53,-375.53 2143.13,-355.64"/>
<polygon fill="black" stroke="black" points="2146.06,-357.56 2148.46,-347.24 2140.15,-353.81 2146.06,-357.56"/>
</g>
<!-- chol_cov_block_3_stds&#45;&gt;theta_cat -->
<g id="edge21" class="edge">
<title>chol_cov_block_3_stds&#45;&gt;theta_cat</title>
<path fill="none" stroke="black" d="M2230.22,-417.74C2218.67,-399.51 2203.47,-375.53 2190.87,-355.64"/>
<polygon fill="black" stroke="black" points="2193.85,-353.81 2185.54,-347.24 2187.94,-357.56 2193.85,-353.81"/>
</g>
<!-- chol_cov_block_0_stds&#45;&gt;theta_cat -->
<g id="edge24" class="edge">
<title>chol_cov_block_0_stds&#45;&gt;theta_cat</title>
<path fill="none" stroke="black" d="M2384.04,-417.78C2369.11,-403 2349.32,-385.52 2329,-373.63 2296.17,-354.43 2255.7,-340.52 2223.42,-331.41"/>
<polygon fill="black" stroke="black" points="2224.4,-328.05 2213.83,-328.78 2222.55,-334.8 2224.4,-328.05"/>
</g>
<!-- z_block_3 -->
<g id="node30" class="node">
<title>z_block_3</title>
<ellipse fill="none" stroke="black" cx="2703" cy="-446.79" rx="51.09" ry="40.66"/>
<text xml:space="preserve" text-anchor="middle" x="2703" y="-458.24" font-family="Times New Roman,serif" font-size="14.00">z_block_3</text>
<text xml:space="preserve" text-anchor="middle" x="2703" y="-441.74" font-family="Times New Roman,serif" font-size="14.00">~</text>
<text xml:space="preserve" text-anchor="middle" x="2703" y="-425.24" font-family="Times New Roman,serif" font-size="14.00">T</text>
</g>
<!-- z_block_3&#45;&gt;theta_cat -->
<g id="edge22" class="edge">
<title>z_block_3&#45;&gt;theta_cat</title>
<path fill="none" stroke="black" d="M2679.76,-410.47C2668.79,-396.68 2654.47,-382.16 2638,-373.63 2567,-336.89 2332.73,-323.87 2223.72,-319.72"/>
<polygon fill="black" stroke="black" points="2223.95,-316.22 2213.83,-319.35 2223.7,-323.22 2223.95,-316.22"/>
</g>
<!-- z_block_4 -->
<g id="node31" class="node">
<title>z_block_4</title>
<ellipse fill="none" stroke="black" cx="2829" cy="-446.79" rx="51.09" ry="40.66"/>
<text xml:space="preserve" text-anchor="middle" x="2829" y="-458.24" font-family="Times New Roman,serif" font-size="14.00">z_block_4</text>
<text xml:space="preserve" text-anchor="middle" x="2829" y="-441.74" font-family="Times New Roman,serif" font-size="14.00">~</text>
<text xml:space="preserve" text-anchor="middle" x="2829" y="-425.24" font-family="Times New Roman,serif" font-size="14.00">T</text>
</g>
<!-- z_block_4&#45;&gt;theta_cat -->
<g id="edge31" class="edge">
<title>z_block_4&#45;&gt;theta_cat</title>
<path fill="none" stroke="black" d="M2806.5,-409.91C2795.95,-396.2 2782.14,-381.89 2766,-373.63 2672.25,-325.67 2354.49,-318.74 2223.83,-317.95"/>
<polygon fill="black" stroke="black" points="2224.05,-314.45 2214.04,-317.9 2224.02,-321.45 2224.05,-314.45"/>
</g>
<!-- rho_block_4 -->
<g id="node32" class="node">
<title>rho_block_4</title>
<ellipse fill="none" stroke="black" cx="2958" cy="-446.79" rx="59.57" ry="40.66"/>
<text xml:space="preserve" text-anchor="middle" x="2958" y="-458.24" font-family="Times New Roman,serif" font-size="14.00">rho_block_4</text>
<text xml:space="preserve" text-anchor="middle" x="2958" y="-441.74" font-family="Times New Roman,serif" font-size="14.00">~</text>
<text xml:space="preserve" text-anchor="middle" x="2958" y="-425.24" font-family="Times New Roman,serif" font-size="14.00">Uniform</text>
</g>
<!-- rho_block_4&#45;&gt;theta_cat -->
<g id="edge33" class="edge">
<title>rho_block_4&#45;&gt;theta_cat</title>
<path fill="none" stroke="black" d="M2933.86,-409.38C2922.81,-395.76 2908.48,-381.66 2892,-373.63 2832.52,-344.66 2384.31,-325.82 2223.89,-319.94"/>
<polygon fill="black" stroke="black" points="2224.03,-316.44 2213.91,-319.58 2223.78,-323.44 2224.03,-316.44"/>
</g>
<!-- theta_cat&#45;&gt;y_obs_probs -->
<g id="edge37" class="edge">
<title>theta_cat&#45;&gt;y_obs_probs</title>
<path fill="none" stroke="black" d="M2121.39,-313.28C1859.77,-297.83 551.4,-220.53 261.81,-203.42"/>
<polygon fill="black" stroke="black" points="262.06,-199.93 251.87,-202.84 261.65,-206.92 262.06,-199.93"/>
</g>
<!-- mu -->
<g id="node34" class="node">
<title>mu</title>
<polygon fill="none" stroke="black" points="1719.12,-735.18 1628.88,-735.18 1628.88,-677.68 1719.12,-677.68 1719.12,-735.18"/>
<text xml:space="preserve" text-anchor="middle" x="1674" y="-717.88" font-family="Times New Roman,serif" font-size="14.00">mu</text>
<text xml:space="preserve" text-anchor="middle" x="1674" y="-701.38" font-family="Times New Roman,serif" font-size="14.00">~</text>
<text xml:space="preserve" text-anchor="middle" x="1674" y="-684.88" font-family="Times New Roman,serif" font-size="14.00">Deterministic</text>
</g>
<!-- y_obs -->
<g id="node36" class="node">
<title>y_obs</title>
<ellipse fill="lightgrey" stroke="black" cx="205" cy="-81.16" rx="55.33" ry="40.66"/>
<text xml:space="preserve" text-anchor="middle" x="205" y="-92.61" font-family="Times New Roman,serif" font-size="14.00">y_obs</text>
<text xml:space="preserve" text-anchor="middle" x="205" y="-76.11" font-family="Times New Roman,serif" font-size="14.00">~</text>
<text xml:space="preserve" text-anchor="middle" x="205" y="-59.61" font-family="Times New Roman,serif" font-size="14.00">Categorical</text>
</g>
<!-- y_obs_probs&#45;&gt;y_obs -->
<g id="edge38" class="edge">
<title>y_obs_probs&#45;&gt;y_obs</title>
<path fill="none" stroke="black" d="M205,-170.01C205,-159.03 205,-146.08 205,-133.55"/>
<polygon fill="black" stroke="black" points="208.5,-133.74 205,-123.74 201.5,-133.74 208.5,-133.74"/>
</g>
</g>
</svg>
