<?xml version="1.0" encoding="UTF-8" standalone="no"?>
<!DOCTYPE svg PUBLIC "-//W3C//DTD SVG 1.1//EN"
 "http://www.w3.org/Graphics/SVG/1.1/DTD/svg11.dtd">
<!-- Generated by graphviz version 14.1.3 (0)
 -->
<!-- Pages: 1 -->
<svg width="1040pt" height="747pt"
 viewBox="0.00 0.00 1040.00 747.00" xmlns="http://www.w3.org/2000/svg" xmlns:xlink="http://www.w3.org/1999/xlink">
<g id="graph0" class="graph" transform="scale(1 1) rotate(0) translate(4 743.27)">
<polygon fill="white" stroke="none" points="-4,4 -4,-743.27 1036,-743.27 1036,4 -4,4"/>
<g id="clust1" class="cluster">
<title>cluster96</title>
<path fill="none" stroke="black" d="M20,-243.82C20,-243.82 102,-243.82 102,-243.82 108,-243.82 114,-249.82 114,-255.82 114,-255.82 114,-329.82 114,-329.82 114,-335.82 108,-341.82 102,-341.82 102,-341.82 20,-341.82 20,-341.82 14,-341.82 8,-335.82 8,-329.82 8,-329.82 8,-255.82 8,-255.82 8,-249.82 14,-243.82 20,-243.82"/>
<text xml:space="preserve" text-anchor="middle" x="99.25" y="-251.02" font-family="Times New Roman,serif" font-size="14.00">96</text>
</g>
<g id="clust2" class="cluster">
<title>cluster96 x 1</title>
<path fill="none" stroke="black" d="M24,-349.82C24,-349.82 102,-349.82 102,-349.82 108,-349.82 114,-355.82 114,-361.82 114,-361.82 114,-459.63 114,-459.63 114,-465.63 108,-471.63 102,-471.63 102,-471.63 24,-471.63 24,-471.63 18,-471.63 12,-465.63 12,-459.63 12,-459.63 12,-361.82 12,-361.82 12,-355.82 18,-349.82 24,-349.82"/>
<text xml:space="preserve" text-anchor="middle" x="88.75" y="-357.02" font-family="Times New Roman,serif" font-size="14.00">96 x 1</text>
</g>
<g id="clust3" class="cluster">
<title>cluster96 x 4</title>
<path fill="none" stroke="black" d="M134,-349.82C134,-349.82 216,-349.82 216,-349.82 222,-349.82 228,-355.82 228,-361.82 228,-361.82 228,-459.63 228,-459.63 228,-465.63 222,-471.63 216,-471.63 216,-471.63 134,-471.63 134,-471.63 128,-471.63 122,-465.63 122,-459.63 122,-459.63 122,-361.82 122,-361.82 122,-355.82 128,-349.82 134,-349.82"/>
<text xml:space="preserve" text-anchor="middle" x="202.75" y="-357.02" font-family="Times New Roman,serif" font-size="14.00">96 x 4</text>
</g>
<g id="clust4" class="cluster">
<title>cluster96 x 5</title>
<path fill="none" stroke="black" d="M134,-243.82C134,-243.82 216,-243.82 216,-243.82 222,-243.82 228,-249.82 228,-255.82 228,-255.82 228,-329.82 228,-329.82 228,-335.82 222,-341.82 216,-341.82 216,-341.82 134,-341.82 134,-341.82 128,-341.82 122,-335.82 122,-329.82 122,-329.82 122,-255.82 122,-255.82 122,-249.82 128,-243.82 134,-243.82"/>
<text xml:space="preserve" text-anchor="middle" x="202.75" y="-251.02" font-family="Times New Roman,serif" font-size="14.00">96 x 5</text>
</g>
<g id="clust5" class="cluster">
<title>cluster5 x 82</title>
<path fill="none" stroke="black" d="M462,-479.63C462,-479.63 536,-479.63 536,-479.63 542,-479.63 548,-485.63 548,-491.63 548,-491.63 548,-589.45 548,-589.45 548,-595.45 542,-601.45 536,-601.45 536,-601.45 462,-601.45 462,-601.45 456,-601.45 450,-595.45 450,-589.45 450,-589.45 450,-491.63 450,-491.63 450,-485.63 456,-479.63 462,-479.63"/>
<text xml:space="preserve" text-anchor="middle" x="522.75" y="-486.83" font-family="Times New Roman,serif" font-size="14.00">5 x 82</text>
</g>
<g id="clust6" class="cluster">
<title>cluster15</title>
<path fill="none" stroke="black" d="M738,-609.45C738,-609.45 898,-609.45 898,-609.45 904,-609.45 910,-615.45 910,-621.45 910,-621.45 910,-719.27 910,-719.27 910,-725.27 904,-731.27 898,-731.27 898,-731.27 738,-731.27 738,-731.27 732,-731.27 726,-725.27 726,-719.27 726,-719.27 726,-621.45 726,-621.45 726,-615.45 732,-609.45 738,-609.45"/>
<text xml:space="preserve" text-anchor="middle" x="895.25" y="-616.65" font-family="Times New Roman,serif" font-size="14.00">15</text>
</g>
<g id="clust7" class="cluster">
<title>cluster5 x 5</title>
<path fill="none" stroke="black" d="M850,-361.73C850,-361.73 960,-361.73 960,-361.73 966,-361.73 972,-367.73 972,-373.73 972,-373.73 972,-577.54 972,-577.54 972,-583.54 966,-589.54 960,-589.54 960,-589.54 850,-589.54 850,-589.54 844,-589.54 838,-583.54 838,-577.54 838,-577.54 838,-373.73 838,-373.73 838,-367.73 844,-361.73 850,-361.73"/>
<text xml:space="preserve" text-anchor="middle" x="950.12" y="-368.93" font-family="Times New Roman,serif" font-size="14.00">5 x 5</text>
</g>
<g id="clust8" class="cluster">
<title>cluster5</title>
<path fill="none" stroke="black" d="M568,-491.54C568,-491.54 786,-491.54 786,-491.54 792,-491.54 798,-497.54 798,-503.54 798,-503.54 798,-577.54 798,-577.54 798,-583.54 792,-589.54 786,-589.54 786,-589.54 568,-589.54 568,-589.54 562,-589.54 556,-583.54 556,-577.54 556,-577.54 556,-503.54 556,-503.54 556,-497.54 562,-491.54 568,-491.54"/>
<text xml:space="preserve" text-anchor="middle" x="786.62" y="-498.74" font-family="Times New Roman,serif" font-size="14.00">5</text>
</g>
<g id="clust9" class="cluster">
<title>cluster82 x 5</title>
<path fill="none" stroke="black" d="M520,-361.73C520,-361.73 602,-361.73 602,-361.73 608,-361.73 614,-367.73 614,-373.73 614,-373.73 614,-447.73 614,-447.73 614,-453.73 608,-459.73 602,-459.73 602,-459.73 520,-459.73 520,-459.73 514,-459.73 508,-453.73 508,-447.73 508,-447.73 508,-373.73 508,-373.73 508,-367.73 514,-361.73 520,-361.73"/>
<text xml:space="preserve" text-anchor="middle" x="588.75" y="-368.93" font-family="Times New Roman,serif" font-size="14.00">82 x 5</text>
</g>
<g id="clust10" class="cluster">
<title>cluster30</title>
<path fill="none" stroke="black" d="M298,-491.54C298,-491.54 430,-491.54 430,-491.54 436,-491.54 442,-497.54 442,-503.54 442,-503.54 442,-719.27 442,-719.27 442,-725.27 436,-731.27 430,-731.27 430,-731.27 298,-731.27 298,-731.27 292,-731.27 286,-725.27 286,-719.27 286,-719.27 286,-503.54 286,-503.54 286,-497.54 292,-491.54 298,-491.54"/>
<text xml:space="preserve" text-anchor="middle" x="427.25" y="-498.74" font-family="Times New Roman,serif" font-size="14.00">30</text>
</g>
<g id="clust11" class="cluster">
<title>cluster30 x 82</title>
<path fill="none" stroke="black" d="M160,-479.63C160,-479.63 266,-479.63 266,-479.63 272,-479.63 278,-485.63 278,-491.63 278,-491.63 278,-589.45 278,-589.45 278,-595.45 272,-601.45 266,-601.45 266,-601.45 160,-601.45 160,-601.45 154,-601.45 148,-595.45 148,-589.45 148,-589.45 148,-491.63 148,-491.63 148,-485.63 154,-479.63 160,-479.63"/>
<text xml:space="preserve" text-anchor="middle" x="249.38" y="-486.83" font-family="Times New Roman,serif" font-size="14.00">30 x 82</text>
</g>
<g id="clust12" class="cluster">
<title>cluster82 x 30</title>
<path fill="none" stroke="black" d="M248,-243.82C248,-243.82 382,-243.82 382,-243.82 388,-243.82 394,-249.82 394,-255.82 394,-255.82 394,-447.73 394,-447.73 394,-453.73 388,-459.73 382,-459.73 382,-459.73 248,-459.73 248,-459.73 242,-459.73 236,-453.73 236,-447.73 236,-447.73 236,-255.82 236,-255.82 236,-249.82 242,-243.82 248,-243.82"/>
<text xml:space="preserve" text-anchor="middle" x="365.38" y="-251.02" font-family="Times New Roman,serif" font-size="14.00">82 x 30</text>
</g>
<g id="clust13" class="cluster">
<title>cluster5 x 1</title>
<path fill="none" stroke="black" d="M930,-621.36C930,-621.36 1012,-621.36 1012,-621.36 1018,-621.36 1024,-627.36 1024,-633.36 1024,-633.36 1024,-707.36 1024,-707.36 1024,-713.36 1018,-719.36 1012,-719.36 1012,-719.36 930,-719.36 930,-719.36 924,-719.36 918,-713.36 918,-707.36 918,-707.36 918,-633.36 918,-633.36 918,-627.36 924,-621.36 930,-621.36"/>
<text xml:space="preserve" text-anchor="middle" x="1002.12" y="-628.56" font-family="Times New Roman,serif" font-size="14.00">5 x 1</text>
</g>
<g id="clust14" class="cluster">
<title>cluster37400 x 6</title>
<path fill="none" stroke="black" d="M134,-137.82C134,-137.82 216,-137.82 216,-137.82 222,-137.82 228,-143.82 228,-149.82 228,-149.82 228,-223.82 228,-223.82 228,-229.82 222,-235.82 216,-235.82 216,-235.82 134,-235.82 134,-235.82 128,-235.82 122,-229.82 122,-223.82 122,-223.82 122,-149.82 122,-149.82 122,-143.82 128,-137.82 134,-137.82"/>
<text xml:space="preserve" text-anchor="middle" x="192.62" y="-145.02" font-family="Times New Roman,serif" font-size="14.00">37400 x 6</text>
</g>
<g id="clust15" class="cluster">
<title>cluster37400</title>
<path fill="none" stroke="black" d="M124,-8C124,-8 226,-8 226,-8 232,-8 238,-14 238,-20 238,-20 238,-117.82 238,-117.82 238,-123.82 232,-129.82 226,-129.82 226,-129.82 124,-129.82 124,-129.82 118,-129.82 112,-123.82 112,-117.82 112,-117.82 112,-20 112,-20 112,-14 118,-8 124,-8"/>
<text xml:space="preserve" text-anchor="middle" x="213.12" y="-15.2" font-family="Times New Roman,serif" font-size="14.00">37400</text>
</g>
<!-- a -->
<g id="node1" class="node">
<title>a</title>
<polygon fill="none" stroke="black" points="106.12,-333.82 15.88,-333.82 15.88,-276.32 106.12,-276.32 106.12,-333.82"/>
<text xml:space="preserve" text-anchor="middle" x="61" y="-316.52" font-family="Times New Roman,serif" font-size="14.00">a</text>
<text xml:space="preserve" text-anchor="middle" x="61" y="-300.02" font-family="Times New Roman,serif" font-size="14.00">~</text>
<text xml:space="preserve" text-anchor="middle" x="61" y="-283.52" font-family="Times New Roman,serif" font-size="14.00">Deterministic</text>
</g>
<!-- y_obs_probs -->
<g id="node18" class="node">
<title>y_obs_probs</title>
<polygon fill="none" stroke="black" points="220.12,-227.82 129.88,-227.82 129.88,-170.32 220.12,-170.32 220.12,-227.82"/>
<text xml:space="preserve" text-anchor="middle" x="175" y="-210.52" font-family="Times New Roman,serif" font-size="14.00">y_obs_probs</text>
<text xml:space="preserve" text-anchor="middle" x="175" y="-194.02" font-family="Times New Roman,serif" font-size="14.00">~</text>
<text xml:space="preserve" text-anchor="middle" x="175" y="-177.52" font-family="Times New Roman,serif" font-size="14.00">Deterministic</text>
</g>
<!-- a&#45;&gt;y_obs_probs -->
<g id="edge16" class="edge">
<title>a&#45;&gt;y_obs_probs</title>
<path fill="none" stroke="black" d="M85.94,-275.87C95.61,-265.44 106.99,-253.75 118,-243.82 121.1,-241.02 124.36,-238.21 127.7,-235.43"/>
<polygon fill="black" stroke="black" points="129.87,-238.17 135.43,-229.15 125.46,-232.74 129.87,-238.17"/>
</g>
<!-- first_cut -->
<g id="node2" class="node">
<title>first_cut</title>
<ellipse fill="none" stroke="black" cx="63" cy="-422.98" rx="43.13" ry="40.66"/>
<text xml:space="preserve" text-anchor="middle" x="63" y="-434.43" font-family="Times New Roman,serif" font-size="14.00">first_cut</text>
<text xml:space="preserve" text-anchor="middle" x="63" y="-417.93" font-family="Times New Roman,serif" font-size="14.00">~</text>
<text xml:space="preserve" text-anchor="middle" x="63" y="-401.43" font-family="Times New Roman,serif" font-size="14.00">Normal</text>
</g>
<!-- cutpoints -->
<g id="node4" class="node">
<title>cutpoints</title>
<polygon fill="none" stroke="black" points="220.12,-333.82 129.88,-333.82 129.88,-276.32 220.12,-276.32 220.12,-333.82"/>
<text xml:space="preserve" text-anchor="middle" x="175" y="-316.52" font-family="Times New Roman,serif" font-size="14.00">cutpoints</text>
<text xml:space="preserve" text-anchor="middle" x="175" y="-300.02" font-family="Times New Roman,serif" font-size="14.00">~</text>
<text xml:space="preserve" text-anchor="middle" x="175" y="-283.52" font-family="Times New Roman,serif" font-size="14.00">Deterministic</text>
</g>
<!-- first_cut&#45;&gt;cutpoints -->
<g id="edge1" class="edge">
<title>first_cut&#45;&gt;cutpoints</title>
<path fill="none" stroke="black" d="M85.91,-388.14C95.19,-375.5 106.44,-361.42 118,-349.82 120.77,-347.04 123.72,-344.28 126.76,-341.58"/>
<polygon fill="black" stroke="black" points="128.99,-344.28 134.36,-335.15 124.47,-338.94 128.99,-344.28"/>
</g>
<!-- cut_diffs -->
<g id="node3" class="node">
<title>cut_diffs</title>
<ellipse fill="none" stroke="black" cx="175" cy="-422.98" rx="45.25" ry="40.66"/>
<text xml:space="preserve" text-anchor="middle" x="175" y="-434.43" font-family="Times New Roman,serif" font-size="14.00">cut_diffs</text>
<text xml:space="preserve" text-anchor="middle" x="175" y="-417.93" font-family="Times New Roman,serif" font-size="14.00">~</text>
<text xml:space="preserve" text-anchor="middle" x="175" y="-401.43" font-family="Times New Roman,serif" font-size="14.00">Gamma</text>
</g>
<!-- cut_diffs&#45;&gt;cutpoints -->
<g id="edge2" class="edge">
<title>cut_diffs&#45;&gt;cutpoints</title>
<path fill="none" stroke="black" d="M175,-382.09C175,-370.2 175,-357.19 175,-345.34"/>
<polygon fill="black" stroke="black" points="178.5,-345.48 175,-335.48 171.5,-345.48 178.5,-345.48"/>
</g>
<!-- cutpoints&#45;&gt;y_obs_probs -->
<g id="edge15" class="edge">
<title>cutpoints&#45;&gt;y_obs_probs</title>
<path fill="none" stroke="black" d="M175,-275.92C175,-264.71 175,-251.6 175,-239.47"/>
<polygon fill="black" stroke="black" points="178.5,-239.75 175,-229.75 171.5,-239.75 178.5,-239.75"/>
</g>
<!-- z_sec -->
<g id="node5" class="node">
<title>z_sec</title>
<ellipse fill="none" stroke="black" cx="499" cy="-552.79" rx="41.01" ry="40.66"/>
<text xml:space="preserve" text-anchor="middle" x="499" y="-564.24" font-family="Times New Roman,serif" font-size="14.00">z_sec</text>
<text xml:space="preserve" text-anchor="middle" x="499" y="-547.74" font-family="Times New Roman,serif" font-size="14.00">~</text>
<text xml:space="preserve" text-anchor="middle" x="499" y="-531.24" font-family="Times New Roman,serif" font-size="14.00">Normal</text>
</g>
<!-- theta_sec -->
<g id="node11" class="node">
<title>theta_sec</title>
<polygon fill="none" stroke="black" points="606.12,-451.73 515.88,-451.73 515.88,-394.23 606.12,-394.23 606.12,-451.73"/>
<text xml:space="preserve" text-anchor="middle" x="561" y="-434.43" font-family="Times New Roman,serif" font-size="14.00">theta_sec</text>
<text xml:space="preserve" text-anchor="middle" x="561" y="-417.93" font-family="Times New Roman,serif" font-size="14.00">~</text>
<text xml:space="preserve" text-anchor="middle" x="561" y="-401.43" font-family="Times New Roman,serif" font-size="14.00">Deterministic</text>
</g>
<!-- z_sec&#45;&gt;theta_sec -->
<g id="edge6" class="edge">
<title>z_sec&#45;&gt;theta_sec</title>
<path fill="none" stroke="black" d="M516.44,-515.85C524.56,-499.09 534.24,-479.15 542.49,-462.13"/>
<polygon fill="black" stroke="black" points="545.55,-463.85 546.77,-453.32 539.25,-460.79 545.55,-463.85"/>
</g>
<!-- chol_cov_sec -->
<g id="node6" class="node">
<title>chol_cov_sec</title>
<ellipse fill="none" stroke="black" cx="818" cy="-682.61" rx="84.5" ry="40.66"/>
<text xml:space="preserve" text-anchor="middle" x="818" y="-694.06" font-family="Times New Roman,serif" font-size="14.00">chol_cov_sec</text>
<text xml:space="preserve" text-anchor="middle" x="818" y="-677.56" font-family="Times New Roman,serif" font-size="14.00">~</text>
<text xml:space="preserve" text-anchor="middle" x="818" y="-661.06" font-family="Times New Roman,serif" font-size="14.00">_LKJCholeskyCov</text>
</g>
<!-- chol_cov_sec_corr -->
<g id="node7" class="node">
<title>chol_cov_sec_corr</title>
<polygon fill="none" stroke="black" points="964,-581.54 846,-581.54 846,-524.04 964,-524.04 964,-581.54"/>
<text xml:space="preserve" text-anchor="middle" x="905" y="-564.24" font-family="Times New Roman,serif" font-size="14.00">chol_cov_sec_corr</text>
<text xml:space="preserve" text-anchor="middle" x="905" y="-547.74" font-family="Times New Roman,serif" font-size="14.00">~</text>
<text xml:space="preserve" text-anchor="middle" x="905" y="-531.24" font-family="Times New Roman,serif" font-size="14.00">Deterministic</text>
</g>
<!-- chol_cov_sec&#45;&gt;chol_cov_sec_corr -->
<g id="edge3" class="edge">
<title>chol_cov_sec&#45;&gt;chol_cov_sec_corr</title>
<path fill="none" stroke="black" d="M843.87,-643.61C855.17,-627 868.39,-607.58 879.64,-591.06"/>
<polygon fill="black" stroke="black" points="882.42,-593.19 885.15,-582.95 876.63,-589.25 882.42,-593.19"/>
</g>
<!-- chol_cov_sec_stds -->
<g id="node9" class="node">
<title>chol_cov_sec_stds</title>
<polygon fill="none" stroke="black" points="681.62,-581.54 564.38,-581.54 564.38,-524.04 681.62,-524.04 681.62,-581.54"/>
<text xml:space="preserve" text-anchor="middle" x="623" y="-564.24" font-family="Times New Roman,serif" font-size="14.00">chol_cov_sec_stds</text>
<text xml:space="preserve" text-anchor="middle" x="623" y="-547.74" font-family="Times New Roman,serif" font-size="14.00">~</text>
<text xml:space="preserve" text-anchor="middle" x="623" y="-531.24" font-family="Times New Roman,serif" font-size="14.00">Deterministic</text>
</g>
<!-- chol_cov_sec&#45;&gt;chol_cov_sec_stds -->
<g id="edge4" class="edge">
<title>chol_cov_sec&#45;&gt;chol_cov_sec_stds</title>
<path fill="none" stroke="black" d="M766.66,-649.99C743.39,-635.46 715.64,-617.85 691,-601.45 684.71,-597.27 678.15,-592.8 671.68,-588.34"/>
<polygon fill="black" stroke="black" points="673.78,-585.53 663.57,-582.7 669.79,-591.28 673.78,-585.53"/>
</g>
<!-- chol_cov_sec&#45;&gt;theta_sec -->
<g id="edge5" class="edge">
<title>chol_cov_sec&#45;&gt;theta_sec</title>
<path fill="none" stroke="black" d="M827.38,-641.88C835.45,-596.96 840.47,-524.26 802,-479.63 778.33,-452.17 681.03,-436.72 617.53,-429.39"/>
<polygon fill="black" stroke="black" points="618.31,-425.95 607.99,-428.32 617.54,-432.91 618.31,-425.95"/>
</g>
<!-- Omega -->
<g id="node8" class="node">
<title>Omega</title>
<polygon fill="none" stroke="black" points="950.12,-451.73 859.88,-451.73 859.88,-394.23 950.12,-394.23 950.12,-451.73"/>
<text xml:space="preserve" text-anchor="middle" x="905" y="-434.43" font-family="Times New Roman,serif" font-size="14.00">Omega</text>
<text xml:space="preserve" text-anchor="middle" x="905" y="-417.93" font-family="Times New Roman,serif" font-size="14.00">~</text>
<text xml:space="preserve" text-anchor="middle" x="905" y="-401.43" font-family="Times New Roman,serif" font-size="14.00">Deterministic</text>
</g>
<!-- chol_cov_sec_corr&#45;&gt;Omega -->
<g id="edge8" class="edge">
<title>chol_cov_sec_corr&#45;&gt;Omega</title>
<path fill="none" stroke="black" d="M905,-523.74C905,-506.01 905,-482.84 905,-463.28"/>
<polygon fill="black" stroke="black" points="908.5,-463.47 905,-453.47 901.5,-463.47 908.5,-463.47"/>
</g>
<!-- chol_cov_sec_stds&#45;&gt;theta_sec -->
<g id="edge7" class="edge">
<title>chol_cov_sec_stds&#45;&gt;theta_sec</title>
<path fill="none" stroke="black" d="M609.39,-523.74C600.63,-505.68 589.13,-481.96 579.53,-462.19"/>
<polygon fill="black" stroke="black" points="582.75,-460.79 575.23,-453.32 576.45,-463.85 582.75,-460.79"/>
</g>
<!-- sigma -->
<g id="node10" class="node">
<title>sigma</title>
<polygon fill="none" stroke="black" points="790.12,-581.54 699.88,-581.54 699.88,-524.04 790.12,-524.04 790.12,-581.54"/>
<text xml:space="preserve" text-anchor="middle" x="745" y="-564.24" font-family="Times New Roman,serif" font-size="14.00">sigma</text>
<text xml:space="preserve" text-anchor="middle" x="745" y="-547.74" font-family="Times New Roman,serif" font-size="14.00">~</text>
<text xml:space="preserve" text-anchor="middle" x="745" y="-531.24" font-family="Times New Roman,serif" font-size="14.00">Deterministic</text>
</g>
<!-- theta_cat -->
<g id="node16" class="node">
<title>theta_cat</title>
<polygon fill="none" stroke="black" points="373.12,-333.82 282.88,-333.82 282.88,-276.32 373.12,-276.32 373.12,-333.82"/>
<text xml:space="preserve" text-anchor="middle" x="328" y="-316.52" font-family="Times New Roman,serif" font-size="14.00">theta_cat</text>
<text xml:space="preserve" text-anchor="middle" x="328" y="-300.02" font-family="Times New Roman,serif" font-size="14.00">~</text>
<text xml:space="preserve" text-anchor="middle" x="328" y="-283.52" font-family="Times New Roman,serif" font-size="14.00">Deterministic</text>
</g>
<!-- theta_sec&#45;&gt;theta_cat -->
<g id="edge13" class="edge">
<title>theta_sec&#45;&gt;theta_cat</title>
<path fill="none" stroke="black" d="M515.64,-396.13C490.16,-381.92 457.62,-364.3 428,-349.82 413.82,-342.88 398.28,-335.83 383.77,-329.47"/>
<polygon fill="black" stroke="black" points="385.38,-326.35 374.81,-325.58 382.59,-332.77 385.38,-326.35"/>
</g>
<!-- sigma_cat_raw -->
<g id="node12" class="node">
<title>sigma_cat_raw</title>
<ellipse fill="none" stroke="black" cx="364" cy="-682.61" rx="69.65" ry="40.66"/>
<text xml:space="preserve" text-anchor="middle" x="364" y="-694.06" font-family="Times New Roman,serif" font-size="14.00">sigma_cat_raw</text>
<text xml:space="preserve" text-anchor="middle" x="364" y="-677.56" font-family="Times New Roman,serif" font-size="14.00">~</text>
<text xml:space="preserve" text-anchor="middle" x="364" y="-661.06" font-family="Times New Roman,serif" font-size="14.00">Halfnormal</text>
</g>
<!-- sigma_cat -->
<g id="node13" class="node">
<title>sigma_cat</title>
<polygon fill="none" stroke="black" points="409.12,-581.54 318.88,-581.54 318.88,-524.04 409.12,-524.04 409.12,-581.54"/>
<text xml:space="preserve" text-anchor="middle" x="364" y="-564.24" font-family="Times New Roman,serif" font-size="14.00">sigma_cat</text>
<text xml:space="preserve" text-anchor="middle" x="364" y="-547.74" font-family="Times New Roman,serif" font-size="14.00">~</text>
<text xml:space="preserve" text-anchor="middle" x="364" y="-531.24" font-family="Times New Roman,serif" font-size="14.00">Deterministic</text>
</g>
<!-- sigma_cat_raw&#45;&gt;sigma_cat -->
<g id="edge9" class="edge">
<title>sigma_cat_raw&#45;&gt;sigma_cat</title>
<path fill="none" stroke="black" d="M364,-641.52C364,-626.12 364,-608.56 364,-593.22"/>
<polygon fill="black" stroke="black" points="367.5,-593.51 364,-583.51 360.5,-593.51 367.5,-593.51"/>
</g>
<!-- category_offset_matrix -->
<g id="node15" class="node">
<title>category_offset_matrix</title>
<polygon fill="none" stroke="black" points="386.38,-451.73 243.62,-451.73 243.62,-394.23 386.38,-394.23 386.38,-451.73"/>
<text xml:space="preserve" text-anchor="middle" x="315" y="-434.43" font-family="Times New Roman,serif" font-size="14.00">category_offset_matrix</text>
<text xml:space="preserve" text-anchor="middle" x="315" y="-417.93" font-family="Times New Roman,serif" font-size="14.00">~</text>
<text xml:space="preserve" text-anchor="middle" x="315" y="-401.43" font-family="Times New Roman,serif" font-size="14.00">Deterministic</text>
</g>
<!-- sigma_cat&#45;&gt;category_offset_matrix -->
<g id="edge11" class="edge">
<title>sigma_cat&#45;&gt;category_offset_matrix</title>
<path fill="none" stroke="black" d="M353.25,-523.74C346.35,-505.76 337.31,-482.18 329.75,-462.46"/>
<polygon fill="black" stroke="black" points="333.12,-461.46 326.27,-453.37 326.58,-463.96 333.12,-461.46"/>
</g>
<!-- sigma_cat&#45;&gt;theta_cat -->
<g id="edge14" class="edge">
<title>sigma_cat&#45;&gt;theta_cat</title>
<path fill="none" stroke="black" d="M378.61,-523.81C397.72,-483.01 425.4,-405.97 395,-349.82 391.78,-343.87 387.36,-338.6 382.32,-333.97"/>
<polygon fill="black" stroke="black" points="384.51,-331.24 374.52,-327.71 380.13,-336.7 384.51,-331.24"/>
</g>
<!-- z_cat_indep -->
<g id="node14" class="node">
<title>z_cat_indep</title>
<ellipse fill="none" stroke="black" cx="213" cy="-552.79" rx="57.45" ry="40.66"/>
<text xml:space="preserve" text-anchor="middle" x="213" y="-564.24" font-family="Times New Roman,serif" font-size="14.00">z_cat_indep</text>
<text xml:space="preserve" text-anchor="middle" x="213" y="-547.74" font-family="Times New Roman,serif" font-size="14.00">~</text>
<text xml:space="preserve" text-anchor="middle" x="213" y="-531.24" font-family="Times New Roman,serif" font-size="14.00">Normal</text>
</g>
<!-- z_cat_indep&#45;&gt;category_offset_matrix -->
<g id="edge10" class="edge">
<title>z_cat_indep&#45;&gt;category_offset_matrix</title>
<path fill="none" stroke="black" d="M240.87,-516.87C254.74,-499.49 271.49,-478.5 285.56,-460.86"/>
<polygon fill="black" stroke="black" points="288.2,-463.17 291.7,-453.17 282.73,-458.8 288.2,-463.17"/>
</g>
<!-- category_offset_matrix&#45;&gt;theta_cat -->
<g id="edge12" class="edge">
<title>category_offset_matrix&#45;&gt;theta_cat</title>
<path fill="none" stroke="black" d="M318.15,-393.92C319.78,-379.36 321.8,-361.34 323.59,-345.41"/>
<polygon fill="black" stroke="black" points="327.03,-346.1 324.67,-335.77 320.08,-345.32 327.03,-346.1"/>
</g>
<!-- theta_cat&#45;&gt;y_obs_probs -->
<g id="edge17" class="edge">
<title>theta_cat&#45;&gt;y_obs_probs</title>
<path fill="none" stroke="black" d="M286.6,-275.92C267.89,-263.21 245.6,-248.06 225.88,-234.65"/>
<polygon fill="black" stroke="black" points="227.93,-231.81 217.69,-229.08 223.99,-237.6 227.93,-231.81"/>
</g>
<!-- mu -->
<g id="node17" class="node">
<title>mu</title>
<polygon fill="none" stroke="black" points="1016.12,-711.36 925.88,-711.36 925.88,-653.86 1016.12,-653.86 1016.12,-711.36"/>
<text xml:space="preserve" text-anchor="middle" x="971" y="-694.06" font-family="Times New Roman,serif" font-size="14.00">mu</text>
<text xml:space="preserve" text-anchor="middle" x="971" y="-677.56" font-family="Times New Roman,serif" font-size="14.00">~</text>
<text xml:space="preserve" text-anchor="middle" x="971" y="-661.06" font-family="Times New Roman,serif" font-size="14.00">Deterministic</text>
</g>
<!-- y_obs -->
<g id="node19" class="node">
<title>y_obs</title>
<ellipse fill="lightgrey" stroke="black" cx="175" cy="-81.16" rx="55.33" ry="40.66"/>
<text xml:space="preserve" text-anchor="middle" x="175" y="-92.61" font-family="Times New Roman,serif" font-size="14.00">y_obs</text>
<text xml:space="preserve" text-anchor="middle" x="175" y="-76.11" font-family="Times New Roman,serif" font-size="14.00">~</text>
<text xml:space="preserve" text-anchor="middle" x="175" y="-59.61" font-family="Times New Roman,serif" font-size="14.00">Categorical</text>
</g>
<!-- y_obs_probs&#45;&gt;y_obs -->
<g id="edge18" class="edge">
<title>y_obs_probs&#45;&gt;y_obs</title>
<path fill="none" stroke="black" d="M175,-170.01C175,-159.03 175,-146.08 175,-133.55"/>
<polygon fill="black" stroke="black" points="178.5,-133.74 175,-123.74 171.5,-133.74 178.5,-133.74"/>
</g>
</g>
</svg>
